<?xml version="1.0" encoding="utf-8"?>
<!-- Generator: Adobe Illustrator 27.9.0, SVG Export Plug-In . SVG Version: 6.00 Build 0)  -->
<svg version="1.1" id="Calque_1" xmlns="http://www.w3.org/2000/svg" xmlns:xlink="http://www.w3.org/1999/xlink" x="0px" y="0px"
	 viewBox="0 0 590 202" style="enable-background:new 0 0 590 202;" xml:space="preserve">
<style type="text/css">
	.st0{fill:#FFFFFF;}
</style>
<path class="st0" d="M485.7,114.5c3.7-23.1,17.1-34.3,35.7-34.3c18.6,0,34.3,12.9,34.3,34.3H485.7z M589.8,133.1
	c0-48.6-24.3-80-68.5-80c-41.4,0-70,31.4-70,74.3c0,45.7,28.6,74.3,72.8,74.3c31.4,0,51.4-14.3,62.8-37.1l-28.6-11.1
	c-5.7,11.4-17.1,21.1-34.3,21.1c-19.1,0-34.8-11.4-38.6-35.7h104.2v-5.8H589.8z M357.2,173c-24.3,0-37.1-17.1-37.1-45.7
	c0-22.8,12.9-45.4,37.1-45.4c25.7,0,37.1,22.6,37.1,45.4S382.9,173,357.2,173 M351.5,201.6c24,0,39.4-11.4,44.3-20v17.1h32.8V4.5
	h-34.3V73c-4.3-8.6-18.9-20-42.8-20c-40,0-65.7,31.4-65.7,74.3C285.8,173,311.5,201.6,351.5,201.6 M198.7,173
	c-24.3,0-38.6-17.1-38.6-45.7c0-25.7,14.3-45.7,38.6-45.7s38.6,20,38.6,45.7C237.2,155.9,222.9,173,198.7,173 M198.7,201.6
	c41.4,0,72.8-28.6,72.8-74.3c0-42.8-31.4-74.3-72.8-74.3s-72.8,31.4-72.8,74.3C125.8,173,157.2,201.6,198.7,201.6 M103,55.9H68.7
	v142.8H103C102.9,198.8,102.9,55.9,103,55.9z M85.9,40.2c11.4,0,20-8.6,20-20s-8.6-20-20-20s-20,8.6-20,20
	C65.9,31.7,74.4,40.2,85.9,40.2 M37.3,55.9H3v142.8h34.3V55.9z M20.2,40.2c11.4,0,20-8.6,20-20s-8.6-20-20-20s-20,8.6-20,20
	C0.2,31.7,8.7,40.2,20.2,40.2"/>
</svg>
