<?xml version="1.0" encoding="utf-8"?>
<!-- Generator: Adobe Illustrator 27.9.0, SVG Export Plug-In . SVG Version: 6.00 Build 0)  -->
<svg version="1.1" id="Calque_1" xmlns="http://www.w3.org/2000/svg" xmlns:xlink="http://www.w3.org/1999/xlink" x="0px" y="0px"
	 viewBox="0 0 1062 458" style="enable-background:new 0 0 1062 458;" xml:space="preserve">
<style type="text/css">
	.st0{opacity:0.8;}
	.st1{fill:url(#SVGID_1_);}
</style>
<g>
	<g>
		<g>
			<g class="st0">
				
					<linearGradient id="SVGID_1_" gradientUnits="userSpaceOnUse" x1="531" y1="-1124.3" x2="531" y2="-1581.6" gradientTransform="matrix(1 0 0 -1 0 -1124)">
					<stop  offset="0" style="stop-color:#3C3C3C"/>
					<stop  offset="0" style="stop-color:#F0F0F0"/>
					<stop  offset="1" style="stop-color:#FFFFFF"/>
				</linearGradient>
				<path class="st1" d="M150,0.3C67.2,0.3,0,67.5,0,150.3v157.3c0,82.8,67.2,150,150,150h762c82.8,0,150-67.2,150-150V150.3
					c0-82.8-67.2-150-150-150C912,0.3,150,0.3,150,0.3z"/>
			</g>
		</g>
	</g>
</g>
<g>
	<path d="M755.9,241.9c4.4-27.3,20.2-40.4,42.1-40.4c21.9,0,40.4,15.2,40.4,40.4H755.9z M878.9,263.8c0-57.3-28.6-94.4-80.9-94.4
		c-48.9,0-82.6,37.1-82.6,87.6c0,53.9,33.7,87.6,85.9,87.6c37.1,0,60.7-16.9,74.1-43.8l-33.7-13.1c-6.7,13.5-20.2,24.9-40.4,24.9
		c-22.6,0-41.1-13.5-45.5-42.1h123v-6.7H878.9z M604.3,311c-28.6,0-43.8-20.2-43.8-53.9c0-27,15.2-53.6,43.8-53.6
		c30.3,0,43.8,26.6,43.8,53.6C648.1,284,634.6,311,604.3,311 M597.6,344.8c28.3,0,46.5-13.5,52.2-23.6v20.2h38.8V112.2h-40.4v80.9
		c-5.1-10.1-22.2-23.6-50.6-23.6c-47.2,0-77.5,37.1-77.5,87.6C520,311,550.4,344.8,597.6,344.8 M417.3,311
		c-28.6,0-45.5-20.2-45.5-53.9c0-30.3,16.9-53.9,45.5-53.9s45.5,23.6,45.5,53.9C462.8,290.8,445.9,311,417.3,311 M417.3,344.8
		c48.9,0,85.9-33.7,85.9-87.6c0-50.6-37.1-87.6-85.9-87.6c-48.9,0-85.9,37.1-85.9,87.6C331.3,311,368.4,344.8,417.3,344.8
		 M304.4,172.8H264v168.5h40.4V172.8z M284.2,154.3c13.5,0,23.6-10.1,23.6-23.6s-10.1-23.6-23.6-23.6s-23.6,10.1-23.6,23.6
		S270.7,154.3,284.2,154.3 M226.9,172.8h-40.4v168.5h40.4V172.8z M206.6,154.3c13.5,0,23.6-10.1,23.6-23.6s-10.1-23.6-23.6-23.6
		S183,117.2,183,130.8S193.2,154.3,206.6,154.3"/>
</g>
</svg>
