<svg xmlns="http://www.w3.org/2000/svg" viewBox="0 0 1080 1920"><path id="visibleCurves" stroke="#000" stroke-linecap="round" stroke-linejoin="round" stroke-width=".1" d="m375.39 1051.19-1.34-5.43m0 0-1.27-5.44m0 0-1.18-5.35m73.97 152.57-.35-1.55m-75.63-161.62-.39-2.55m77.99 168.55-.29-1.48m-54.12-96.3.1.04m38.28 55.08.02-.02m-31.6-43.16h.02m10.88 15.74 3.3 2.93m-11.58-13.77.03.02m45.98 76.26.06-.05m-49.83-103-.1 1m8.67-6.3-.59.21m5.5 36.63v-.03m0 .03v.15m39.6 56.33.18-.07m-34.5-67.3 1 .07m44.33 25.9.6.08m7.54 34.86.11-.02m-9.1-46.2.45-1.04m40.73 122.34 1.42.09m-24.31-137.62-.01-.02m16.93 71.14-.54-.57m7.73 61.87.08-.05m-.1-83.88.04-.04m11.05-15.33-.3-.06m4.52 49.03-2.61.64m17.63 45.33v-.09m14.84-124.56-.01-.02m-.8 29.25-.02-.06m-.56 40.16.56.6m-7.9 28.85.02-.1m23.07-94.92-.17-.13m-4.07 98.26-.56-.2m.56.2-.6-.2m-4.2 1.48-.09.05m25.75-50-.37.5m-5.83 55.14.92-1.4m.04.05.17.1m.22-1.23-.12-.1m27.41-61.86.06-.2m-1.03 17.11-.1-.06m-17.53 47.05.03-.22m.59 12.68.97-2.36m-1.48-6.42-.01-.02m34.96-66.2.1.06m-3.07 9.2.47-.4m-14.7 22.53h-.02m44.77-84.47-.1.05m-38.82 78.33.37-.09m56.57-67.88v-.05m11.11.45-.25.53m20.24-37.26.26-.21m-61.7 108 .08.02m67.82-121.25h.02m-.02 0 .08-.31m-299.74 5.15-.09.12m14.53 3.41.59-.12m24.64 16.94-.91.07m.9-.1.13-.01m61.58 5.84.02.01m102.71-4.79-.06.06m34.69-.33h-.03m-212.23-3.3.45-1.26m65.16 164.84.97-1.95m-8.48-42.92.09.27m183.8-82.08.75.2m-.04-.04-.8-.22m-212.07 33.37.02.03m83.99 53.69-.08-.05m66.23-32.55-.02-.03m-87.94-1.26.9-.6m168.4-87.9-.66.54m-.8-2.18.13-.65M502.8 1188.9l.13.73m19.5 12.33.17-.39m85.21 11.52.14-.03m-13.52-11.97.02.17m45.4-123.78.36-.4M598.63 1108h-.02m22.16 111.66.4-3.77m-61.58 39.54-.06-.1m17.6-120-.16.4m-123.48-19.77.99.69m-22.4-4.66-.06-.08m-.02-.68.02.69m128.4 110.2h.01m142.05-164.55.04-.05m-43.46 64.46.08-.05m-160.37 7.33.43.2m-13.22-38.72.85-.46m135.09 103.79-.2.62m1.22-56.56.01.02m-99.53 81.92-.22.4m-11.03-3.22.01-.03m-63.03-69.56.82-.1m139.1 33.24-.3.3m-.22.72v.02m-110.71 31.79 4.81 2.47m0 0 2.43 3.97m-48.5-67.72.01.01m133.21 18.94.15-.08m51.4 6.69.62.87m-206.85-90.9.16.15m249-17.65.06.08m-208.51 65.06.18-.17m139.47 65.75-.37.2m-115.1 28.38.3-.17m63.04 8.74-1.92-.54m146.15-155.8-.02.01m-43.4 37.94v-.03m54.34-82.7v.02m-227.76 65.89.06-.37m132.55-1.15-.2.05m-71.05 29.75h-.05m7.58-1.4.55-.12m89.1 35.87-.45.77m50.26-109.33-.03-.1m-234.34 120.38.25-.28m83.84 13.2-.38-.18m18.2 16.7.04.05m61.62-35.65-.4.04m-20.37-3.23.14-.22m.37-.22.25-.6m-64.65 1.86-.84 1.05m97.7-28.47-.51.38m75-70.55-.96.37m-173.67 128.83.1.36m187.26-169.74-2.44-.07m-65.1 46.45.06-.26m.1.82.01-.24m-168.06 61.06h.04m5.7-2.36-.94.92m.41.18-.38.01m-24.5 74.8 4.76 1.68m-27.3-103.22.87-.39m203.65 66.44-.17.01m-123.32-63.24.07.12m94.5-8.2.05.04M482.01 1229.1l-.03.05m-2.84-119.73.04-.02m24.89 40.86.01-.03m50.7 30.2-.36-.05m6.31-21 .8-.87m-32.28 13.57-.16.18m.75-1.12.01.02M477 1181.94l.06-.16m60.34 46.8 1.12-.8m-90.71-135.63-.61-2.24m84.92 41.41-.07.02m-7.09 3.9v-.05m-72.37-47.09.1-.02m-9.29 2.35.86-.26m40.92 71.07 1-1.5M369.43 1023.7l.16.67m-.39-2.56-.01.06m14.2 51.81-.02-.09m.86 1.98.3.56m18.5 34.65-.83-1.35m45.54 76.36-.23.03m-53.72-96.3.09-.05m5.78 15.09-.05-.02m10.4 8.87 1.91.94m-5.93-36.33.43-.44m.59-.2.23-.6m11.74 48 2.66 4.75m-1.63-4.83.05.33m10.87 19.31.28-.04m18.39 14.46-.05.21m-15.03-33.75.02-.02m2.78-.63.59-.26m26 54.79.24.12m-15.94-82.74-.11.17m-.3 14.56.05-.07m7.98 26.2-.26.32m38.92 80.95-.49.75m2.16-102.86-.06-.37m32.36 74.19.97.3m-10.06-6.75-2.61.64m11.62 31.84-3.2 3.32m2.08-51.04.35.78m.44 5.67-.2.34m10.4 3 .06-.03m17.54-67.55.97-.76m-8.4 24.34.12.34m-3.55 10.6.11-.12m10.04 62.7-.6.42m20.94-44.29.06-.15m-2.54 16.77.2-3.1m0 0 1.12-2.22m-.3 38.67 1.12-1.23m1.78-3.67.12.2m-1.48.98-.13-.22m20.89-46.56.03.06m20.07-3.3-.28-.07m25-74.33v-.1m3 33.63-.18-.5m-30.06 60.12-.4-.21m46.63-61.63-.12.81m-4.72 9.14-.88.1m20.63-33.45.35.15m-1.4 10.16-.27-.01m-30.73 44.49-.1.15m39.57-73.28h.02m-5.34 26.95.54-.27m-4.17 11.63-.04-.46m2.13-4.14.2-.48m-.2.48-.25.5m-33.42 47.42.1-.07m60.35-98.61-.11.1m-58.18 98.18.04-.1m-9.41 29.68v.03m-.38 1.5.14-.45m77.96-180.7.16-4.28m-310.01 60.99.73.01m-.03.25.03-.25m38.03 20.41.9-.1m61.7 5.92.75 1.2m155.54-15.96-1.03.05m-151.53 183.39-.48-5.44m0 0v-1.27m-11.56-8.78-.96 1.95m51.28 16.78-.36-.61m14.28-5.45-1.43 4.54m0 0 1.64.38m53.5-21.97 1.15 1.52m18.57-38 .08-.5m-24.69 11.54-.06-.02m63.17-94.7.03.04M535.35 910.9h.02M371.61 1035l1.3 5.06m70.1 136.48-.2-.95m-3.68-11.48-2.21-5.13m0 0-1.26-2.91m-39.03-55.59 1.6 2.75m5.45 8.5-1.44-2.27m240.44 50.5v.02m-1.98 4.59.64-1.48m65.63-122.4-2.2 9.65m3.03-13.07-.83 3.43m-69.5 134.23-.53 1.63m-.21 1.46.04-.32m-.74 3.18-.18.66m-1.2 5.13.07-.35m77.48-177.54.32-5.58m0 0 .07-.82m-79.15 195.53-.16 1.22m.16-1.22-.13 4.02m-114.64-103.3h.01m-56.09 28.92-.02-.1m-82.12-78.69.02.02m-9.28-25.43h.01m16.24 56.1.1.24m-2.31-7.47h.02m2.2 7.23.01-.02m43.71 68.31-.1-.19m-37.16-58.03-.1.03m5.96 15.04h.02m-.01 0-.16-.02m10.87 15.73-.03.04m-12-37.65.55-.34m14.81 40.88h-.02m-7.37-45.63.59-.2m40.17 68.18.58.01m1.78 13.4-.1.11m24.44 41.77-.18 1.56m10.91 19.65-.63.96m-36.13-111.87.04-.02m32.08-9.35-.01-.02m7.03 22.87-1.85.24m19 109.3-.06.03m28.96-63.13-.2-.13m22.99-7.78.07.01m4.12-6.7.02-.1m-1.26 50.52-.08-.02m.05.02-.05-.02m-3.56 1.07.16-.15m.75-.55-.75.55m26.72-48.86.63-.67m-17.7 32.32.23.25m-2.96 9.43.2-.28m30.39-53.65.52-.54m-18.36 66.9-.04-.04m.32-1.19-.45-.47m9.24 3.23-.12 2.23m.15-3.06-.02.63m55.84-118.93-.07-.09m-37.9 87.35.09-.08m38.57-86.57-.76-.7m-12.34 59.76.04.03m54.03-79.42.87.08m7.37 12.8-.6-.82m12.96-28.91-.04.07m-68.17 130.04-.05-.05m6.77-23.92v-.03m-237.58-100.79.05-.05m38.22 19.96-.26.03m166 .46-.38.45m57.87-20.74.03.05m32.99-29.9.11-.29m-38.66 41.03 1.2-.03M482.09 1236.4l-.37.3m92.42 10.15-.05.04m48.14-67.7v-.02m-53.14-39.47h-.02m16.18 27.56-.01.03m18.07-66 .02.01m3.15-5.83v-.02m-56.26 138.11-.03.06m-81.8-81.26.03-.59m87.44 11.36v-.02m-9.09 43.78-.1-.07m1.24-23.04-.08-.06m52.95-1.7-.03-.04m.07-9.1-.11.06m-12.59-9.46.17-.02m-72.91 6.98-.14.79m6.77-.65-.9.6m.9-.6.82-.69m97.33-28.35h.01m69.61-58.4.05-.11m-99.44 5.49h.03m15 136.35v-.05M470.78 1087.3h.02m-.34-.18h-.02m144.04 107.51.38-.2m-2.74-8-.09-.07m.25.25.36.36m-72.6-39.14v-.02m100.28-70.21.03.43m-90.29 19.37h.02m105.01 28.8.02.02m10.65-11.57-.07.01m-205.45 1.24v-.01m12.08 22.96h-.03m-10.68-14.18.2.63m19.15 6.63-.27.3m1.12-2.33.01-.02m-4.57 7.79.51.17m169.03.4-.29-.08m-1.3-23.5-.01.02m-.02.04.04-.05m-231.48-24.7-.02.04m200.37 127.44-.01-.01m.4.57 4.1 2.16m8.03-3.17-.05.07M458.9 1151.4l.01-.02m-7.05 60.31 1.04 1m133.36 25.92h-.07m-9.05-4.78.65.3m15.66-101.26.01.03m-24.42 6.85-.02.08m16.2-1.99h-.04m-130.86-21.3-.83-.56m58.14 18.34v-.02m-30.65-26.17h.02m33.84 26.73v.02m-101.67-25.15-.02-.03m14.14 23.26-3.16-2.78m9.32-18.26.03.03m-59.41-82.52-1.8.17m8.17 19.23v-.03m36.33 44.68h-.02m191.33 82.87v.02m0 0v-.02m-4.44-64.87.02-.01m-.5-9.84-.01-.01m98.76-65.56v-.03m.05.05h-.03m-217.7 133.71-.06-.02m-18-9.86-.03-.02m-9.74-8.9.06.1m-25.03-44.54-.1.07m226.78 15.72-.35-.09M541.03 1099l1.32.07m8.72-4.84-.13.06m-89.28 30h-.02m39.1 10.95-1.39.97m-18.6-6.06h.02m1.08-.26h.05m22.26 104.26-.01.02m-13.53-143.21.69-.64m-1.43 1.32-.04.04m174.29 6.98-.03.02m-40.04 83.9 1.95.33m-.11 13.77.73-.78m-1.23.91.5-.12m-7.36-50.19.09.24m-95.45 73.8-.02.05m.04-.08-.02.03m-2.68-19.88-.02-.02m-8.77-1 1.65-1.45m-63.93-50.71.01-.01m2.03.44.22.07m11.46 5.6-.02-.02m-11.82-8.52.5.12m.13-.15-.3-.35m-42.41-84.26h-.02m-19.23 13.21.3.2m-2.36-7.6-.3.44m197.58 100.7-.04.04m-14.57 12.2-.01.02m17.85 2.69-.08-.08m.41-2.53.35 1.1m15.27-62-.02-.02m-170.26-7.07-.01.02m49.5 50.65.27.2m31.98-66.69.39.06m-5 6.3.4.5m24 11.79-.06.1m-54.34 115.28-.2-.37m-7.68-122.3h.02m.13-3.97-.02-.02m-25.28-8.8.01-.03m21.9 8.14h.03m.71.15-.03-.01m10.11 5.84-.03.1m.02-.09h.01m139.3 17.97-.1.35m.01 0 .13-.43m-107.6 20.43.62-.23m-47.74-11.7v-.06m97.9 35.82-.66-.13m-.16 0 .82.13m-8.96 9.69.45-.13m-.48.14.03-.01m66.76-2.58.11.15m.86 1.27-.08-.03m-14.07-2.73.17-.13m21.6-13.46.3.74m-16.01-31.5v.01m-64.2 29.85-.98-1.03m-8.26-20.47h.03m-.72 7.6v.02m6.9-15.77h.02m-74.06-25.64v-.02m107.78 1.63-.43.05m-14.73 12.38.02.03m-159.36-41.68-.5-.63m-.16-.2-.02-.02m108.28 83.22.02-.01m15.62 10.58-.13.12m.12-.12.33-.34m2.45-.83-.04-.05m-55.1 11.75.15.27m-.2.06.08.7m112 59.14.03.01m-34.94-136.78.04.01m40.88 95.5.46-.27m9.16 6.28.2.58m42.65-62.24-.2.35m-.08.44.09-.44m-17.4-58.85.03.22m.04.02-.08-.24m24.84 17.43h.02m-174.93 125.4.08.42m69.86 7.81h.03m-.03 0h.04m-4.54 1.02.4.23m-11.28-9.73v.02M560 1219.1l.18.33m.16 3.33v-.01M674 1089.97l.62.25m-.05-.06-.57-.19m-20.75 20.76-.45-.04m2.67 1.39-2.22-1.35m0 0 2.22 1.35m-213.13-28.42.03-.01m.01.01-.13.03m2.08 7.02v.02m-.06.6.06-.54m-7.83-3.99-.23.14m29.07 48.49h.02m2.73-.92-.02.01m-10.45-14.7v.03m15.87-12.5.02-.01m3.3 2.1.02.02m-6.44-6.92-.01.02m6.73 6.95h.05m182.64-49.59v-.02m-1.82 11.53-.02.1m-196.2 52.87.01.04m148.27-28.78.08.03m-.05 0-.04-.03m-5.62 5.63v-.02m-.54.16.54-.14m-.08 11.29.08.1m-71.51 18.61h-.79m1.23.02h.18m96.18 33.68-.4.65m-97.22-34.34h-.02m154.55-85.65h-.02m-225.28 119.4.11.49m-.14-.25.01.02m139.93-40.9-.1.1m.6 21.23-.1.11m-47.14 34.94-.35-.23m-9.11 11.67.94.02M436.92 1086.9v.02m191.61-.24v-.02m-93.9 44.66h-.02m16.82 33.42-.02-.03m-9.33 26.38-.4-.5m59-17.62-.02.01m7.24-1.7h-.03m-6.76.92.02-.03m88.22-90.96-.02.01m-33.7 41.53h.01m-3.26-4.87v.01m-80.85 33.29-.01-.02M512 1205.57l-.17-.41m-68.78-116.53.01-.01m-27.77-.57-.01.02m47.04 37.14v-.02m136.03 2.43h-.03m-3.69 73.82.14-.23m-103.17-20.37-.2-.06m174.65-66.09-.29-.03m-54.82 56.1.02.01m-6.64-27.91.01.01m0-30.25v-.02m-144.09 3.3v.02m16.74 21.6-.01.02m.01-.01h-.01m4.87-7.62v-.02m38.84-28.41-.87.14m2.35 3.33.03.02m.32.55-.02-.06m104.83 102.88-1.3 5.03m-170.47-126.49v.02m26.09 43.49-.03.01m-101.07-81.68v.02m67.68 45.86-.01-.02m17.98 65.3h.01m-8.58 3.03h-.03m-1.25-12.03.15.18m49.96-17.93-.04.36m158.27-25.24v-.01m3.3-17.04-.01-.02m-153.89 127.4-.24-.66m-1.88-12.35v-.02m-42.74-56.01.07-.04m-64.06-71.37.12.3m221.24 39.12v.02m-106.24-16.51-.73.31m61.35 90.4-.43.1m25.93-96.4h-.02m-15.39-6.92.01-.01m16.75 12.62.08.04m-88.85 7.66.01-.02m-1.1 1.11.02-.02m-52.88-22.9v-.01m0 .1v-.02m18.58 75.56h-.02m-35.8-51.52v-.01m25.58-7.94.02.02m-4.24-.71-.07.01m.07 0h-.07m45.39 44.76.07.1m-49.1-12.31-.01-.01m107.87 39.25.37.83m10.47-65.23v.03m78.18-35.69.13-.05m-206.4 62.22v-.26m57.67 25.3.31-.25m15.72 9.96.01-.03m-.48.82-.27.3m.81-.93.01.02m75.33 61.07 4.86 2.7m0 0 2.23 2.06m-25.7-64.04.02.02m-177.42-112.82v-.02m228.84 31.91.01-.01m-167.59 45.55v.02m191.93-63.55v-.01m-59.39 27.4.01-.01m-106.75 23.4v-.02m182.67-69.15.23.69m-226.53 31.55h-.06M528.47 1190l.26.02m-90.91-103.29.19.37m31.19 62.49.09-.1m104.96 98.89.3-.1m-128.14-52.02.08 2.44m-15.7-51.58.37.58m106.95 30.66v-.02m-165.21-138.3-1.37-5.42m0 0-1.32-5.16m68.46 133.6 2.22 5.13m0 0-1.77-4.11m5.78 21.17 1.23 4.75m0 0-.56-2.47m197.09-27.58-2.04 4.73m67.73-129.27-1.24 5.53m2.68-11.48-2 7.78m-.75 3.57 1.31-5.4m-71.42 141.12-.25 1.1m0 0-.88 3.87m0 0-1.09 4.8m-255.33-135.44 1.04-2.05m19.35 55.75-.11-.01m7.58-27.79 4.72 2.42m0 0 1.4.51m7.42 19.81-.02.27m13.12 38.3-.02.35m40.02 62.41.91-1.88m-12.47-69.72.21.03m8.14 34.95.44-.3m8.16 7.02 5.16.6m0 0 .76.88m-.33-64.46-2.93-3.69m0 0-1.17-.85m-.8-1.67-.48-2.04m1.28 3.7-.8-1.64m15.34 65.27-1.41-.68m10.2-55.25 2.45-.67m-11.8-7.48 1.7.75m7.6 46.54-.1.12m.03 0 .1-.11m7.63 68.95v.02m37.93-106.34-2.78 2.17m0 0 .36.47m22.62 91.55-5.22-1.98m0 0-3.48-3.4m16.29-38.44-1.88.65m7.18-7.15-.54.17m-2.57 2.4.04-.05m-7.59 13.03.11.21m36.28-15.75 1.47-.26m-8.49 25.87.46-.02m-1.14-.19.14.07m17.5-20.16h-.67m0 0-1.97 1.12m-7.64 12.97.46-.11m40.6-80.83 2.42-5.01m0 0 4.44-2.97m0 0 1.45.53m-3.52 39.41.34.05m16.86-14.7h.02m-31.98 49.1-3.37 4.4m0 0-2.3 4.01m45.79-63.28-1.72 2.79m0 0-3.81 4.14m0 0-.05-.05m-39.24 63.24h-.04m-.14 2.77-.01-.01m.4 6.62-.83 2.32m-192.8-104.8-.74.08m0 .02h.02m63.61 5.62.72 1.27m138.7-10.36-2.97-.67m.86 4.7-.14 1.35M507.1 1239.4l.69-1.94m11.32-37.92-5.28 1.3m0 0-2.4.41m93-83.52v-.09m-54.04 116.03.58 4.68m37.66 2.6.76-.7m-123.45-91.13-4.26-2.97m143.6 62.94-.37-1m66.05-90.09-1.43-.23m-113.44 89.27.03-.17m52.9-34.4-1.15-1.2m-6.82 1.54-.91.6m-85.33 31.47-1.5.5m0 0 1.5-.5m99.31 11.83 1.73-2.58m-3.73-27.68.16.16m-150.77-62.3.1.37m.22.63.6 1.77m-48.53-36.88 2.94.4m38.09 26.46.01.02m41.77 15.81 1.41.92m-47.79 48.68.04-.05m-18.12-71.7-.24.52m0 0 .43-.77m1.06 1.43-.67.27m0 0 .68-.26m46.93 68.37 1.38-.73m0 0-1.52.78m90.18-66.35-2.79 4.7m0 0-1.21 1m90.62 3.17 1.98-.86m-125.84-25.34 5.17 1.98m0 0 2.63.35m-49.7-8.67-1.25 1.15m2.67-3.5-1.42 2.35m134.59 106.36.77-.2m-170.97-46.13-4.01-2.38m-.64-.16.64.16m-63.15-82.09-.66.4m13.7 14.03h.02m109.36 21.52.32-3.07m24.58 14.96-4.9 2.56m0 0-5.48.79m0 0-.6-.03m-50.84 114.81 2.56 1.88m-8.2-9.26.44 1.96m.7-123.79.26-.05m83.11 70.53-.5 2.56m13.3-4.38-2.27-.63m44.29 6.01.33-.24m32.34-31.96-2.74-3.43m-97.2 7.2-.47-.2m0 .02.4.18m47.47-28.93-1.37-5.35m0 0-.6-1.23m-5.7-4.43-2.93.54m-.2.06 1.97-.43m-13.7 12.01.13.2m-148.53-27.24.17-1.1m247.3-28.44.26.9m0 0 .04.1m0 0-.25-.97m-.06-.03.25 4.63m-.07.56-.29 1.3m-149.41 91.85v.02m86.18 9.96-.09.03m-3.57 28.17 4.54 3.11m0 0 2 2.66m43.02-60.12.15.9m-17.2-59.74-2.5-4.96m0 0-.94-.64m-76.67 156.66 1.06.08m-12.32-11.15-1.4 1.64m22.88-5.57.4-.95M674 1089.97l-2.54.3m18.23-7h.04m-36.94 27.43-.53 5.5m0 0 .06 1.4m46.47-80.86v.01m-7.26 15.96-.2.66m-214.23 56.16-.28-.06m127.58-8.17-1.06.22m5.28-.34-.24-.03m2.25-4.63 1.3-.26m-86.82 38.32-.17.67m17.55 5.48 3 2.04m82.7 24.1 1.08-1.2m-1.9 1.81.81-.6m-185.14-76.45-4.36-2.37m-.69-.96.7.96m44.98 74.6.23-.15m-.21.12-.04.03m-92.28-93.46-3.69-.25m248.87 64.53-.96-.31m-29.97 84.91-.56 3.28m4.2-8.51-.96.48m31.8-136.71-.99-3.28m-156.71 56.58.85.62m153.85 18.55-6.01-.46m-37.95-16.48.37.45m-142.7-17.17-3.56.1m248.16-66.96 4.3 2.98m0 0 3.47-3.96m0 0-4.09-3.09m0 0-.6-.23m-235.39 143.4-.77-2.1m192.3-63.05-2.07-3.33m2.9-7.1 4.26 3.95M503.15 1239.3l-.75-1.05m-39.76-85.19.56.64m54.87-50.7-.69 4.1m90.26-5.96.25.07m-137.94 1.29v-.01m-43.53 24.55.29 1.77m219.87-30.87h-.01M483.9 1162.5l-1.4-5.36m0 0-.02-2.48m26.8-44.34.62.77m164.28-10.73 2.48.66m-158.94 57.54.56.7m35.67 2.39 5.36-1.37m0 0 1.42-.9m23.5-49.43.2.36m-13.51 3.48 3.25-.45m89.3-40.06.82-2.87m-255.08-10.45-.15.74m202.07 35.77.47-.06m12.77 71.62 3.01-.54m-38.58-12.39 5.26-1.83m0 0 3.72-2.64m7.75-9.3-1.14 3.8m-53.24-52.17-1.52-1.76m-182.26-93.65.3 3.63m94.13 79.3-3.43-.93m221.58-29.5-4.4 3.43m0 0-4.6 3.17m0 0-4.7 3m0 0-4.77 2.92m0 0-4.95 2.6m0 0-4.95 2.58m0 0-5.06 2.34m0 0-4.7 2.01m58.5-43.03-.35.57m-324.19 23.12 1.97 5.23m0 0 1.87 5.26m0 0 1.76 5.3m0 0 2.08 5.19m0 0 .36.92m61.4 111.34 1.97 4.38m-76.02-167.03.73 5.5m0 0 .18 1.56m0 0 1.38 5.4m0 0 1.08 5.49m0 0 1.88 5.24m0 0 1.69 5.32m0 0 1.52 5.37m0 0 .61 4.48m-4.5-12.74 3.42 11.04m64.95 118.66-1.17-5.44m0 0-1.93-5.24m0 0-1.86-5.25m0 0-.48-1.41m10.18 39.4 1.1 5.31m0 0 .98 5.5m0 0 1.72 5.3m0 0 1.2 5.46m0 0 .7 5.54m0 0 .06 1.36m-75.22-178.32 2.95 4.65m0 0 2.6 4.93m0 0 1.98 5.21m0 0 1.44 5.38m0 0 2.49 5m0 0 1.9 5.22m0 0 4.52 2.6m0 0 1.08-.2m-5.57 8.93 2.34 4.66m53.1 88.46-.34-.08m2.07 16.47.42-1.36m-63.87-148.52.54 5.07m8.9 36.63-2.24-4.37m28.62 46.05 3.8 4.09m0 0 3.8 4.1m0 0 .99.77m-4.48-4.03 3.25 4.54m0 0 3.32 4.5m0 0 3.08 4.65m0 0 2.85 4.8m0 0 3.42 4.34m0 0 3.78 4.1m0 0 4.63 3.06m0 0 .76.16m-52.36-88.53 4.83 2.45m0 0 .76.96m1 22.55 2.64 4.67m0 0 1.62.62m-4.2-5.28.3-.22m.58.3-2.09-4.7m0 0-1.97-4.43m2.24-21.05 1.06-.01m5.9 35.47 5.73.92m10 22.08 4.92 1.7m0 0 1.38.24m.25 6.6-2.9-.73m29.02 54.6 1.48 3.11m0 0 .52-.25m2.57 10.47.76 5.5m0 0 1.5 5.37m0 0 1.42 4.26m-47.72-127.57-2 2.33m22.1 45.69 4.78 2.85m0 0 4.56 3.2m0 0 4.68 3.04m0 0 5.02 2.45m0 0 4.9 2.7m0 0 5.14 2.11m0 0 .73.07m-21.23-5.14 3.42 4.37m0 0 3.92 3.97m0 0 4.63 2.6m0 0 4.84-1.02m0 0 3.05-.04m-.57 59.6 1.77 5.28m0 0 4.02 3.62m0 0 5.51.16m0 0 1.67-.91m-52.65-155.56.88 5.32m0 0 1.7 5.26m0 0 3.28 4.51m0 0 4.66 2.93m0 0 5.12 1.13m0 0 2.56-1.8m-15.9 8.07-2.04 4.47m0 0-.4 3.53m0 0 5.56-.5m0 0 1.61-1.16m-1.76 12.42 3.12 4.63m0 0 3.7 4.18m0 0 4.06 3.83m0 0 3.54 4.3m0 0-.41 3m-3.63-.23-.93 3.02m2.79-35.98.93 5.26m0 0 4.36 2.9m0 0 4.23 3.63m0 0 3.65 3.44m0 0 2.6 1.93m-15.8-5.62.76 1.69m-10.95-14-.37 1.17m48.8 109.41 5.02-.7m0 0 1.3.8m-33.34-101.98 3.93-2.02m5.52-27.08.12 5.53m0 0-.63 5.14m0 0-2.21 3.51m0 0 3.6 4.23m0 0 4.84 2.69m0 0 5.5-.08m0 0 4.25-3.43m0 0 2.2-.54m-7.48 29.8 5.4 1.3m0 0 5.1 1.96m0 0 5.2.78m0 0 4.98.25m-32.8-6.47 3.3 4.13m0 0 3.54-.14M482 1169l2.43.89m-5.17 1.06 5.24 1.63m0 0 .68-.16m-.05-47.56-2 1.04m-3.38 5.4.27-4.03m14.9 29.8-.63 1.89m4.17 11.83-.15-.65m-1.43 2.75 5.02 2.41m0 0 4.99 2.46m0 0 5.5.86m0 0 5.55-.27m0 0 5.51-.9m0 0 4.29-1.76m-23.66-64.58.45 4.97m0 0 1.29.92m-11.1-14.04.84 1.23m0 0 .87-.48m1.33 12.03-1.6.81m7.59 22.72 4.9-1.97m0 0 5.58-.08m0 0 5.56.5m0 0 5.04 2.25m0 0 4.12 3.23m0 0 5.18 1.97m0 0 4.83 2.8m0 0 2.02.35m-32.54-.1 2.34-1.8m2.5 15.04 1.18.63m-.84-57.86-4.44-3.32m0 0 .6-2.58m10.37 6.12 1.78.15m2.05 52.04-5.42 1.08m0 0-.42 1.26m5.81-24.54 1.13-3.1m14.32 29.03.4 1.34m-6.77 9.35-4.06 1.78m20.25-67.66 4.82 1.77m0 0 .82-.93m-5.24 6.87-2.42 2.64m-6.5 12.5 2.95 2.57m23.77-17.56 1.83-1.22m3.64-1.32 3.83-3.93m0 0-1.24-5.12m0 0-4.24-3.56m0 0-4.48-2.23m-3.17 13.28-.16.75m-1.67 11.3 2.75 4.64m0 0 5.12 2.1m0 0 5.31 1.68m0 0 3.33 3.75m0 0-2.28 3m-8.13 3.97.37 4.34m-2.68 15.99-4.8 2.17m0 0-4.86.53m3.45 43.91 5.44 1.23m0 0 5.13-.68m0 0-.1-.53m-14.37 32.75 5.42-.83m0 0 4.27-1.88m0 0-.93-5.48m0 0-.4-1.27m19.83-120.89-1.76-5.13m0 0 1.87-5.23m0 0 3.71-4.12m0 0 3.91-3.96m0 0 3.47-2.98m-23.03 63.3 5.32-1.4m0 0 5.5-.21m0 0 5.33-.47m0 0 1.2-.55m-11.74 14.52-1.95.81m6.54-5.13-1.04.94m0 0-.15.05m0 0-1.2-.6m21.49-54.59.72-1.15m-7.94 30.23 3.21-4.43m0 0 3.85-4.05m0 0 3.62-4.25m0 0 4.03-3.82m0 0 5.21-2m0 0 5.28-1.82m0 0 4.44-3.28m0 0 3.8-3.96m0 0-.54-3.84m0 0-.27-2.55m-32.44 34.3.89 4.54m0 0-1.37 5.5m-4.32 12.58 5.55-.33m0 0 5.36-1.48m0 0 2.46-5.33m-20.23 43.84 3.48-3.53m-10.66 21.54-.2-.23m28.8-65.2 3.7-4.16m0 0 4.02-3.87m0 0 4.2-3.69m0 0 4.4-3.42m0 0 5.02-2.45m0 0 4.44-3.34m0 0 2.06-5m0 0 1.39-4.73m-24.62 41.42 1.47-.27m-8.97 9.7 4.28-2.83m0 0 3.62-2.73m17.56-61.06 9.1-10.8m-16.9 58.67-4.2-.72m4.8 4.28 4.73-2.74m0 0 4.69-3m0 0 3.3 1.96m-15.26 12.88-.25.17m.2-.47.05.3m-14.57 22.06-1.37-.02m39.95-86.36 1.8-3.58m0 0-1.1-5.47m0 0-.25-.85m2.22 16.69 4.96-1.68m0 0 3.38-4.2m0 0 4-3.8m0 0 1.8-5.13m-10.83 10.1 2.51-2.65m-11.82 45.8 1.13-4.36m0 0 4.69-3.03m0 0 4.88-2.72m0 0 3.44-2.17m-23.97 26.04 5.07-2.2m0 0 5.06-2.35m0 0 4.87-3.33m0 0 3.92-3.96m0 0 4.4-3.43m0 0 4.32-3.55m0 0 2.65-2.15m-30.18 20.1-1.17-.68m-8.07 8.84-2.64 1.12m-4.8 7.71-1.31 1.2m34.94-51.35 5.07.95m0 0 5.01.82m-28.45 39.08 4.79-2.48m0 0 2.62-1.56m27.83-50.14.85-3m0 0 3.23-4.54m0 0 4.14-3.73m0 0 5.1-2.6m-10.1 14.73-4.27 3.57m0 0-.45 4.82m.07 1.39 1.4 1.04m-1.78 1.27 1.24-.8m-5.34 7.62 4.9-2.01m0 0 3.67-4.21m0 0 3.63-4.24m0 0 3.52-4.18m-16.9 14.69-.81.28m-5.47 12.08-.3-1.53M633 1162.17l2.56-4.93m0 0 3.99-3.9m0 0 4.43-3.4m0 0 3.2-2.64m29.8-82.42 5.5.51m0 0 3.44-4.3m0 0 3.57-3.98m0 0 4.07.1m-20.6 45.92.26.16m-23.75 38.93 4.1-3.8m0 0 3.93-3.96m0 0 3.97-3.93m0 0 1.78-1.64m10.86-24.66 3.03-1.82m.55-.27 3.07-4.51m0 0 2.76-4.84m0 0 .98-1.5m-37.22 56.1-.1-.08m.26.75-2.52 2.47m-5.72 11.1-2.88 4.77m0 0-2.8 3.65m57.51-105.23 2.93-7.4m-39.48 81.94-3.37 4.45m0 0-3.23 4.56m0 0-3.14 4.62m0 0-2.67 4m2.92-3.46 1.47-2.13m-11.96 25.5-.27 2.66m61.71-107.74.78-5.24m0 0 1.89-5.25m0 0 2.17-5.15m0 0 2.26-5.1m0 0 1.57-5.34m0 0 .45-5.56m0 0 1.23-5.44m0 0 2.39-5m0 0 1.07-5.48m0 0 .77-5.53m0 0 .2-5.58m0 0-.15-4.56m-20.65 79.93 1.91-5.22m0 0 2.1-5.18m0 0 2.32-4.8m0 0 2.2-5.12m0 0 2.01-5.21m0 0 1.02-2.81m-67.16 127.63-.39.83M395.8 1051.63l1.52 3.24m64.88 180.86-2.33-4.4m0 0-1.83-4.16m-12.74-140.3 4.8-1.84m0 0 2.57-1.75m33.03 8.86 5.5.55m0 0 2.68-3.04m20.81 3.15 2.73 3.63m0 0 .72 1.4m32.89-2.93-3.34 4.21m-3.78 2.58-5.22-1.91m0 0-4.5-2.31m78.3-15.24-3.42 3.27m-2.83-.32-.19 10.63m37.34-15.4-2.08 4.04m-36.11 1.61-2.54 2.6m57.98-13.84 4.64-2.45m0 0 .21-5.56m0 0-.77-2.61m28.14-14.32-3.18 2.18m0 0-.36-5.49m0 0-1.96-1.14m11.5-8.87-1.17-2.73m-142.18 215.05.29 5.47m0 0 .26.9m18.34-6.83-.28-1.56m51.78-29-.75 3.69m-2.12 7.34 2.13-4.91m0 0 .26-2m-174.05-80.2 4.95 1.21m0 0 4.81 2.83m0 0 .54.34m-10.34-3.86.09 1.61m14.51 5.2 2.5 2.59m20.58 43.23-2.23 4.16m0 0 .37.79m99.77-67.18-1.46-4.46m0 0 3.22-4.54m0 0 3.63-4.22m0 0 4.9-2.59m0 0 5.5-.23m0 0 1.72 1.08m.84 91.35 2.2 3.73m67.9-99.68-3.26 4.53m0 0-.36.55m-182.11 223.71-4.7-3m0 0-4.39-3.46m0 0-3.93-3.97m0 0-1.77-2.21m0 0-2.9-4.77m0 0-1.9-5.24m0 0-.34-1.64m117.84 23.13 4.39-3.45m0 0 4.07-3.82m0 0 3.56-4.3m0 0 2.85-4.8m0 0 1.53-4m-28.75 26.84 5.12-2.22m0 0 4.9-2.69m0 0 2.33-1.56m-97.91-48.82.87-3.62m-16.31 38.85 3.43 4.4m0 0 3.96 3.94m0 0 4.36 3.49m0 0 3.69 2.47m-14.78-12.3 3.62 4.25m0 0 4.16 3.72m0 0 4.54 3.25m0 0 2.46 1.5m1.3-30.4-4.6-3.17m0 0-4.28-3.58m0 0-1.75-1.7m113.33 26.2-1.54.97m-117.52-1.87 3.56 4.3m0 0 4.08 3.81m0 0 4.47 3.35m0 0 2.95 1.9m-19.29-21.75.03.08m-.17-.55-.24-.84m22.62 10.4v-.03m118.63-26.92v-.04m-141.41 15.76 1.99 5.2m0 0 2.4 4.16m123.13-18.88.44-.44m-108.36-30.37.2-.17m.64.72.15-.11m-1-.78-.24.17m-19.33 40.8 1.68 5.32m0 0 2.72 4.87m0 0 .62.88m122.05-36.98.9-.88m-105.49-12 2.27 1.51m-3.56-2.44 1.3.93m106.98 45.72-3.86 4.03m0 0-4.34 3.5m0 0-3.01 2.09m-95.84-5.85-1.3-.8m1.3.8.34.2m-22.96-12.25.18 1.05m.57 2.22 2.2 5.12m0 0 2 3.2m16.33-49.9.1-.06m1.42 56.47.54-.57m0 0 1.6-3.75m115.15-36.31-2.36 5.05m0 0-3.2 4.57m0 0-2.22 2.45m7.92-28.99-2.28 5.1m0 0-3.15 4.6m0 0-2.59 2.87m-110.9 5.1-4.6-3.17m0 0-4.28-3.58m0 0-1.58-1.53m130.73 15.83-.85 5.51m0 0-2.16 5.14m0 0-3.18 4.58m0 0-3.88 4m0 0-4.39 3.47m0 0-3.78 2.42m-122.76-8.17.14.45M486.62 776l3.57 4.3m0 0 3.55 4.3m0 0 3.54 4.33m0 0 3.52 4.33m0 0 1.21 1.5m105.61-15.1 2.48 5m0 0 2.45 5.03m0 0 2.4 5.04m0 0 2.36 5.06m0 0 2.32 5.08m0 0 .3.67m13.8-16.1 2.04 5.21m0 0 1.98 5.23m0 0 1.94 5.23m0 0 1.89 5.26m0 0 1.45 4.13m-184.15-30.34 3.63 4.24m0 0 3.63 4.25m0 0 3.63 4.24m0 0 3.6 4.22m199.34 16.13.94 5.5m0 0 .89 5.52m0 0 .83 5.53m0 0 .65 4.62M516.7 771.34l3.4 4.43m0 0 3.4 4.44m0 0 3.36 4.46m0 0 3.35 4.47m0 0 2.1 2.85m-58.94 9.12 2.53-4.98m0 0 2.57-4.96m0 0 2.6-4.94m0 0 2.65-4.93m0 0 2.9-5.3m169.14 26.16 1.5 5.38m0 0 1.47 5.39m0 0 1.4 5.4m0 0 1.36 5.42m0 0 .35 1.45m-41.9-19.66 3.64-4.23m0 0 3.64-4.24m0 0 3.63-4.24m0 0 2.89-3.38m55 62.33-.28 5.58m0 0-.35 5.57m0 0-.18 2.54m-4.06-31.45.34 5.58m0 0 .27 5.58m0 0 .22 5.58m0 0 .08 2.69M502 794.75l2.91-4.76m0 0 2.94-4.75m0 0 2.97-4.73m0 0 3-4.72m0 0 2.87-4.45M532.32 792l3.21-4.58m0 0 3.23-4.55m0 0 3.26-4.54m0 0 3.28-4.52m0 0 2.5-3.4m0 0 3.17 4.6m0 0 3.15 4.62m0 0 3.12 4.63m0 0 3.09 4.65m0 0 2.63 4.01m0 0 3.44-4.4m0 0 3.45-4.39m0 0 3.47-4.38m0 0 3.5-4.36m0 0 1.73-2.17m0 0 2.87 4.8m0 0 2.83 4.81m0 0 2.8 4.84m0 0 2.76 4.85m0 0 2.79 4.99m0 0 3.59-4.28m0 0 3.59-4.28m0 0 3.6-4.27m0 0 3.6-4.26m0 0 .64-.75m37.84 14-4.9-2.7m0 0-4.98-2.5m0 0-5.08-2.35m0 0-5.14-2.17m0 0-5.21-2m0 0-5.27-1.86m0 0-5.32-1.7m0 0-5.37-1.55m0 0-5.4-1.41m0 0-5.44-1.28m0 0-5.47-1.14m0 0-5.5-1m0 0-5.51-.88m0 0-5.54-.75m0 0-5.55-.63m0 0-5.56-.5m0 0-5.57-.38m0 0-5.58-.25m0 0-5.59-.14m0 0-5.58-.02m0 0-5.59.11m0 0-5.58.23m0 0-5.57.35m0 0-5.57.47m0 0-5.55.6m0 0-5.54.71m0 0-5.52.85m0 0-5.5.97m0 0-5.48 1.11m0 0-5.45 1.24m0 0-5.4 1.38m0 0-5.38 1.52m0 0-5.34 1.66m0 0-5.28 1.81m0 0-5.23 1.97m0 0-5.16 2.13m0 0-5.1 2.3m0 0-5 2.47m0 0-4.92 2.65m0 0-4.8 2.84m0 0-4.69 3.04m0 0-4.54 3.25m0 0-4.38 3.47m0 0-4.19 3.7m0 0-3.96 3.93m0 0-3.71 4.18m0 0-3.4 4.42m0 0L399 826.5m0 0-2.65 4.91m0 0-2.2 5.14m0 0-1.67 5.32m0 0-1.1 5.48m0 0-.5 5.56m0 0 .13 5.58m0 0 .13 1.4m.39 3.58-.39-3.58m297.7 0 .28-5.58m0 0-.34-5.57m0 0-.95-5.5m0 0-1.54-5.37m0 0-2.06-5.19m0 0-2.54-4.97m0 0-2.96-4.74m0 0-3.33-4.48m0 0-3.63-4.24m0 0-3.9-4m0 0-4.14-3.75m0 0-4.33-3.53m0 0-4.5-3.3m0 0-4.66-3.1m0 0-4.8-2.9m-218.4 25.83 1.6-5.35m0 0 1.65-5.34m0 0 1.7-5.32m0 0 1.76-5.3m0 0 .92-2.7m-35.79 50.27.49-5.57m0 0 .54-5.56m0 0 .6-5.55m0 0 .42-3.6m46.88-15.17 2.08-5.18m0 0 2.14-5.16m0 0 2.17-5.15m0 0 2.22-5.12m0 0 2.45-5.53m-48.44 47.37 1.06-5.48m0 0 1.12-5.47m0 0 1.18-5.46m0 0 1.28-5.67m-22.04 51.98-.11-5.59m0 0-.06-5.58m0 0v-5.59m0 0 .01-1.84m127.69 49.2h-.1m2.46 322.88-.07-.03m-2.75 9.75h.05m44.66-34.47-.06-.04m-95.7 70.73v.38m0-.58v.2m0-.2.54-5.55m0 0 .44-1.96m90.56 105.96-5.49 1.03m0 0-5.53.71m0 0-5.57.42m0 0-5.59.12m0 0-5.58-.17m0 0-5.57-.46m0 0-5.53-.75m0 0-1.14-.2m88.74-111.5-2.38 5.05m0 0-3.15 4.61m0 0-3.74 4.15m0 0-4.2 3.68m0 0-4.75 3.38m-96.27 44.54v.1m0-33.12v.1m0 16.4v.11m-24.72-44.52-.1.36m19.61 13.59-4.7-3m0 0-4.4-3.44m0 0-3.97-3.93m0 0-3.37-4.45m0 0-1.71-3.02m18.15 92.59 1.74-5.24m0 0 1.05-1.36m-2.79 7.05 4.95 2.6m0 0 5.12 2.21m0 0 5.26 1.87m0 0 5.37 1.56m0 0 1.22.3m0 0 5.46 1.19m0 0 5.52.9m0 0 5.55.62m0 0 5.57.36m0 0 5.58.1m0 0 5.59-.18m0 0 5.56-.44m0 0 5.54-.72m0 0 5.5-1m0 0 5.43-1.32m0 0 5.34-1.63m0 0 3-1.1m-84.68-58.92 3.2-4.55m0 0 .38-.77m0 0 .48-2.16m88.34 35.11-5.27 1.86m0 0-5.37 1.52m0 0-5.45 1.22m0 0-5.5.92m0 0-5.56.65m0 0-5.57.4m0 0-5.58.12m0 0-5.58-.12m0 0-5.58-.38m0 0-5.55-.63m0 0-5.51-.88m0 0-5.47-1.15m0 0-5.4-1.43m0 0-5.31-1.71m0 0-5.21-2.01m0 0-1.71-.75m0 0-5.02-2.45m0 0-4.64-2.68m-4.52-19.72.4.4m5.42 38.88-4.59-3.18m0 0-4.28-3.58m0 0-3.89-4m0 0-3.38-4.44m0 0-2.76-4.86m0 0-2.07-5.52m118.12 32.23-4.9 2.68m0 0-5.12 2.23m0 0-2.2.82m0 0-5.32 1.7m0 0-5.41 1.37m0 0-5.49 1.05m0 0-5.53.77m0 0-5.57.48m0 0-5.58.22m0 0-5.58-.06m0 0-5.58-.33m0 0-5.55-.6m0 0-5.52-.86m0 0-5.46-1.16m0 0-1.08-.27m0 0-5.38-1.52m0 0-5.27-1.85m0 0-5.14-2.19m0 0-4.95-2.56m0 0-.5-.29m99.14-4.08-4.9 2.67m0 0-5.12 2.25m0 0-2.92 1.1m0 0-5.33 1.68m0 0-5.41 1.36m0 0-5.49 1.05m0 0-5.53.77m0 0-5.56.5m0 0-5.58.22m0 0-5.59-.04m0 0-5.58-.3m0 0-5.55-.56m0 0-2.23-.3m-.07-.01-5.5-.94m0 0-5.46-1.21m0 0-2.23-.59m0 0-5.35-1.62m0 0-5.24-1.92m0 0-5.11-2.25m0 0-4.95-2.59m0 0-.81-.47m100.38-1.36-4.94 2.62m0 0-5.12 2.2m0 0-3.15 1.16m0 0-5.33 1.65m0 0-5.43 1.34m0 0-5.48 1.04m0 0-5.54.75m0 0-5.56.5m0 0-5.58.23m0 0-5.59-.03m0 0-5.57-.27m0 0-5.56-.53m0 0-5.53-.79m0 0-5.49-1.04m0 0-5.43-1.32m0 0-.76-.2m0 0-5.34-1.64m0 0-5.24-1.94m0 0-5.1-2.25m0 0-4.96-2.6m0 0-2.63-1.57m-44.42-138.99-.35-1.05m57.93 3.96v-.02m-53.26-29.91.23-.21m34.17 64.31.04-.05m1.04-1.52-.4.56m22.13 17.38-2.13-.03m13.54-80.42.05.1m116.1 20.57-.04-.1m-93.53 23.59.16.42m-93.61-27.53-.88-.35m164.07.55v-.02m-59.47-81.6.05-.06m-148.49-31.09-.05.04m71.29 168.16.24.18m11-10.97.04-.78m60.58-311.68v-.01m-32 252.37v.5m-96-94.64v.02m31.92 113.55-3.31 3.84m11.31-21.2v.02m-10.5 41.86.96 1.26m88.17-296.4h-.01m-86.77 249.47.37-.32m47.05 9.36-.34-.35m174.74-55.2-.08-.02m-42.26-32.96-.05-.02m51.47-29.97-.5.89m-171.97 185.1-.17-1.43m62.06-144.3.9 4.64M495.4 907.7l.04.01m79.17 3.27h.02m42.45 302.26-1.48 1.04m-183.09-101.97.3-.12m232.36 5.09.85-1.46m-265.23-35.3.55.02m68.59 21.96-.03-.01m.05 0 .18.04m141.72-6.28-1.2.27m8 51.28h.01m-30.13-60.45 2.11 1.17m6.77-172.76h.02m-82.61 246.46v.02M387.3 1038.5l-2.53-3.1m172.22 55.46 7.13-.6m-67.6 77.5-1.21-.72M367.15 997.36l.31 5.58m0 0 .49 5.56m35.7 44.5.85 5.5m0 0 3.48 4.02m0 0 3.19-.77m0 0 3.35 4.38m0 0 2.5.75m99.79 153.95-.08-.1m1.7.89-.46-.18m83.61-49.52.7.37m-14.76-6.35-.2-.07m-45.99 21.3h-.09m-12.4.64h-.02m-14.88 3.08.63-.2m-23.36 13.01-.06.07m74.76-12.87-.07-.06m-13.07-3.55.04-.01m13.04 3.6.07.03m39.34 33.6v-.02m-.72-17.31.02-.03m-91.93 31.6-4.84-1.28m4.72-.64-4.63-1.24m78.39-13.49v-.11m0 2.47v-.15m3.12 15.96 4.2-.54m-86.92-.32.09.03m-20.91-6.61.1.06m-6.1-2.86.36.33m83.88 29.57-5.53.76m0 0-5.56.55m0 0-5.58.35m0 0-5.58.16m0 0h-3.46m38-4.26-5.46 1.22m0 0-5.5 1m0 0-1.32.22m23.84-5.84-5.32 1.7m0 0-5.38 1.49m0 0-.86.21m39.87-18.64-4.45 3.37m0 0-4.68 3.04m0 0-4.88 2.72m0 0-5.03 2.43m0 0-5.15 2.16m0 0-4.11 1.52m35-21.67-3.91 4m0 0-2.78 2.42m11.76-13.32-3.17 4.6m0 0-1.9 2.3m8.43-14.14-2.2 5.13m0 0-1.16 2.1m4.94-14.68-.99 5.5m0 0-.6 1.94m-65.54-27.44-.04-.01m-.75-.23-.1-.03m-178.6-110.07-2.21-5.13m0 0-.76-1.76m59.13 101.18.57 1.52m-12.45-30.73-4.84-5.81m4.8 7.05 2.28 3.35m214.29 0 2.28-3.35m-8.8 17.89-1.3 3m0 0 1.36-3.14m3.66-8.5-.23.53m-8.28 24.94.92-3.84m-.04.33-1.31 5.43m0 0-1.28 5.43m0 0 .68-2.48m0 0 .36-1.4m-30.85 49.52 4.99 2.17m0 0 4.7 2.96m0 0 4.37-2.85m0 0 4.03-3.87m0 0 3.4-4.41m0 0 3-4.7m0 0 2.34-5.06m0 0 1.28-5.43m0 0 .53-2.5m-125.68 40.62 5.2-1.23m0 0 5.32 1.4m0 0 4.25 3.6m0 0 3.87 4.02m0 0 4.91 2.13m0 0 5.58.29m0 0 5.58-.01m0 0 5.44-.74m0 0 5.55-.38m0 0 5.58-.21m0 0 5.56-.4m0 0 5.48-1.08m0 0 5.48-1.1m0 0 5.38-1.45m0 0 5.28-1.55m0 0 5.25-1.88m0 0 3.84-1.56m0 0 1.97-5.01m0 0-.68-4.94m0 0 5.02-2.16m0 0 3.13-4.58m0 0 1.79-5.26m0 0-.25-3.47m-145.58 2.68-2.66 1.42m0 0 .02 1.65m0 0 3.07 4.34m0 0 4.25 3.6m0 0 4.43 3.4m0 0 4.8 2.85m0 0 4.84 2.78m0 0 5.13 2.23m0 0 5.12 2.23m0 0 5.32 1.71m0 0 5.32 1.7m0 0 5.43 1.29m0 0 5.48-.03m0 0 5.48-1.07m0 0 5.43.48m0 0 4.71 2.85m0 0 1.71.9m-81.73-64.82.98 5.5m0 0 .97 5.5m0 0 .9 5.48m0 0 .2 5.58m0 0 1.45 5.34m0 0 3.04 4.68m0 0 3.64 1.58m77.78-318.84v.01m-72.92 216.2.06.07m-89.58-87.11 1.96 5.21m0 0 1.33 5.43m0 0 1.58 5.35m0 0 2.01 5.19m0 0 1.31-.83m64.32 124.21.6-.33m.9 4.6.88-3.15m1.07 15 2.02.85m-62.63-145.28-3.71-2.03m0 0-2.63-4.92m0 0-1.87-5.25m0 0-1.2-5.44m0 0-2.21-5.09m0 0-2.88-4.78m0 0-2.27-5.05m0 0-.25-.6m16.7 58.47-1.51-5.35m0 0-1.64-5.31m0 0-2.08-5.18m0 0-1.6-5.34m0 0-1.21-5.45m0 0-.5-4.1m13.39 41.7.31.23m.25.16-.04-.04m0 0 3.13 4.6m0 0 2.57 4.95m0 0 .83 1.98m0 0-.05.11m38.9 56.75 2.75 4.84m0 0 2.84 4.8m0 0 2.85 4.8m0 0 2.64 4.92m0 0 .6 1.72m0 0 .54 5.48m0 0 .85 5.51m0 0 .47 5.57m0 0 .93 5.46m0 0 2.35 1.83m0 0 1.48 4.78m0 0 .83 5.53m0 0 .94 5.5m0 0 1.21 5.45m0 0 1.44 5.4m0 0 .8 2.82m-14.46-49.94 1-.58m3.81 16.6-2.18-1.07m-63.86-148.52 2.33 5.06m0 0 4.48 2.87m0 0 3.13 4.62m0 0 2.19 5.06m0 0 1.17 2.24m0 0 3.19 4.58m0 0 2.52 1.58m-9.58 15.69-2.06-4.44m.03.02-.12.02m33.88 52.5 3.4 4.44m0 0 3.68 4.19m0 0 4.04 3.84m0 0 4.08 3.8m0 0 3.63 4.25m0 0 3.37 4.45m0 0 1.84 3.62m-3.5 15.1 2.15-3.32M399 1082.32l.75-.46m6 26.25.63-.06m-.27-.15 4.79 2.82m0 0 .02 1.72m.22-3.23-2.87-4.73m0 0-3.7-4.15m0 0-1.93-1.26m11.17 24.13 3.8 4.06m0 0 4.92 2.31m0 0 4.57 3m0 0 .7 1.7m3.12 10.08.08-1m-24.97-65.33-.1-.01m7.43 1.7 3.43 4.09m0 0 2.27 5.08m0 0 1.44 5.35m0 0 .28 5.28m-9.42 9.23 4.34 3.4m0 0 1.86 2.26m-5.63-.23-.71-4.31m0 0-.34-1.16m8.1 16.07 1.41.21m-.38-.3 5.12 1.6m0 0 4.12 3.69m0 0 3.22 4.55m0 0 1.41 3.56m.23 6.93-3.65-4.15m0 0-2.84-4.58m0 0 .22-1.62m28.85 47.96 5.1 1.52m0 0 .7 4.98m0 0-.63.64m-1.37 8.73h.01m-.01 0 1.98 2.88m2.33 10.85 4.26 3.43m0 0 4.3 3.48m0 0 3.5-2.49m-14.39-15.3v.04m-45.27-98.07 3.42-4.13m0 0 .34-.82m19.9 49.44 5.18-1.53m22.35 80.63.34 1.65m-37.37-121.98 4.29 2.51m0 0 .7 2.24m-2.03 14.01.23-.14m-.01 0 3.61-.93m6.56 20.78 5.86-.16m18.73 24.08-4.8-2.68m0 0-5.06-2.35m0 0-4.74-2.94m0 0-5.1-2.24m14.55 20.46-1.24-3.25m11.89 23 5.19-.48m0 0 5.49-.21m0 0 .77.28m-9.37 17.87-.02.22m-30.3-104.57 1.33-.95m-1.36 12.5-5.27.57m0 0-3.35.11m-1.93-11.82.1.43m-1.21-1.96-4.55-.37m25.51 26.76-1.96-4.66m0 0-4.28-3.58m0 0-2.7-4.83m0 0-.46-.6m27.91 54.44 5.55.51m0 0 5.57.1m0 0 5.3 1.7m0 0 5.13 2.17m0 0 5.08 2.28m0 0 2.85 1.49M483.98 1223l1.04-1.51m-1.04 1.5-.9 5.25m0 0 3.19 3.73m-.05.75v-.83m-4.15 4.5 4.15-3.97m-37.85-137.07 1.25-5.08m0 0 4.68-2.95m0 0 5.4-1.33m0 0 5.29 1m0 0 2.21 3.9m-19 5.57.17-1.1m-1.12 3.13.97-2.1m13.46 21.6-3.61-4.12m0 0-4.92-2.45m0 0-5.3-.3m15.28 18.23-1.4-4.97m0 0-3.74-4.13m0 0-3.67-3.74m40.6 40.54-4.79-2.85m0 0-4.65-2.88m0 0-4.82-1.7m0 0-5.39-1.17m0 0-5.45.73m0 0-5.22-1.8m0 0-4.26-3.56m0 0-4.05-3.83m0 0-.4-2.8m15.22 26.72-4.37-3.48m0 0-2.52-4.86m0 0-1.02-1.89m27.97 68.3 3.48-3.72m-15.29-86.52-3.8 3.9m0 0 1.83 2.12m-5.28 1.8-2.6-4.37m0 0-4.23.38m16.74 33.41 2.42.9m10.33 48.15 3.09-4.57m0 0-2.7-4.72m0 0-1.1-4.83m.43 14.68.28-.56m9.5 21.35h3.45m-3.44 0-1.41-.1m-23.39-139.58.28-5.49m0 0 4.7-2.11m0 0 5.38-.44m6.82 33.42-5.53.4m0 0-4.13-.87m-1.86.24 1.93-.24m-6.31 5.52-1.4 1.6m.68-4.47.22-.12m0 0 5.1-2.17m0 0 .6-.2m40.25 43.14-5.5-.63m0 0-5.5-.41m0 0-3.1.5m0 0-5.57.24m0 0-5.58-.24m0 0-5.3-1.5m0 0-1.87-4.74m0 0 1.29-3.74m5.07 9.88-3.2 4.2m0 0-.71.68m2.08-2.02.06-.48m0 0-.04.3m-1.48-1.85.58.6m-.58-.6-.34-.35m-.16 4.56-.16-.2m26.38 29.73-1.53-5.23m0 0-3.45-3.76m0 0-4.58-1.3m0 0-4.98 2.25m0 0-4.43-2.72m0 0-1.46-5.63m5.57 53.93 5.35-1.03m0 0-3.77-3.54m0 0-5.16-.66m2.4-123.72 5.58-.1m0 0 5.4.06m0 0-.5-3.77m0 0-4.54-3.22m0 0-.86-.73m-13.85 13.06-1.67.39m0-.02.07.44m18.98 18.34-5.51-.92m0 0-5.23-1.83m0 0-4.2-3.6m0 0-3.8-3.5m7.62 16.9.34-4.31m6.89 9.56-5.54 2.16m.12-.05-1.8.95m-.1.12h.03m24.41 65.97-4.55-1.58m0 0-5.35 1.3m0 0-5.1.37m0 0-1.68 2.78m8.4 5.44 3.16-3.79m0 0 4.21-3.5m0 0 .74-1.08M514.7 1092.8l2.34 5.01m0 0 3.3 4.5m0 0 .82 2.73m0 0-4.63-3.11m0 0-4.76-2.92m0 0-1.6-.74m3.02 20.27 4.52-3.09m0 0 4.62.33m0 0 2.65 1.3m-.94 17.33-.63.24m-12.62 11.77 5.41 1.08m0 0 4.11 3.66m0 0 4.65 3.06m0 0-.97 2.41m-5.37 3.4-.46-1.05m.46 1.05-2.18 2.73m0 0-.62-.16m-1-.36 1 .36m12.64 27.7.32-2.68m6.45 61.77-1.72-1.65m-.01 0-4.85-2.74m0 0-1.12.16m8.03-130.57-2.71-4.22m0 0-4.94-2.6m0 0-4.68-2.96m0 0-3.07-3.97m20.55 27.2-5.1-1.71m0 0h-5.57m0 0-4.37 2.85m0 0-.58 2.16m14.32 29.03 3.5-4.03m0 0 5.54-.14m0 0 3.28-3.42m0 0 5.4.54m0 0 2.92 3.05m-33.43 11.76-.4-.2m6.61 3-5-1.17m0 0-1.2-1.63m1.42 6.94 3.77-4.36m22.85 9.45-4.91 2.61m0 0-5.2 1.92m0 0-5.43-.92m0 0-5.14.5m0 0-2.99 1.4m0 0-2.22 2.02m9.34-9.34.2.03m8.06 28.36 5.2 1.88m0 0-.55 4.95m0 0-3.2 4.52m0 0-4.39 3.4m0 0-4.88 2.7m0 0-4.23 3.4m0 0 .07 2.15m0 0v.1m14.83-124.66 5.64.84m.98 4.81.97-.76m-8.4 24.34-4.02-3.61m0 0-4.77-1.02m9.37 6.75-.6-2.18m-2.83 10.04.06-1.19m-4.63 5.12 4-2.97m6.68 19.44-5.26 1.66m0 0-.73.57m5.78-5.02 4.43 1.16m7.8 5.1-5.5-.6m0 0-4.12 3.3m0 0-4.23 2.37m0 0-2.01 1.18m13.9 26.38.41-2.28m0 0-5.55-.49m0 0-5.55-.42m0 0-5.32 1.54m0 0-4.62 2.9m0 0-.44 1.27m4.6 35.9 5.05 2.33m0 0 3.38 4.08m0 0-1.1 5.43m0 0-2.46 4.98m0 0-4.27 3.35m0 0-.28 1.42m21.73-148.88-2.98 4.18m0 0-3.35 3.47m0 0 .78 1.33m15.5-12.16-5.22 1.99m0 0-4.65.96m-3.8-2.85-.15.74m12.56 26.48-4.79 2.8m0 0-3.34 1.17m2.63.47-2.47 4.73m0 0 2.48 4.89m0 0 1.29 1.16m-6.34 8.7-5.03-1.78m0 0-.42-1.85m5.42 3.5.03.13m6.84 12.62-4.2-2.37m0 0-5.52.1m0 0-3.6.43m-5.23 19.04-.36-4.83m0 0 .12-4.14m1.62 27 .91-.71m-1.5 1.13-.04 5m0 0 1.92 5.1m0 0 5.32.33m0 0 2.38-.45m-8.68 21.51.02-.03m-.92 1.43.23 5.36m0 0 .73 2.28m71.01-149.06-4.1-2.89m0 0-5.56.03m0 0-5.43-.87m0 0-5.33-.34m0 0-2.43 5m0 0-.65.88m0 0-2.94 4.69m0 0-4.18 3.59m0 0-5.28 1.72m0 0-5.4-.9m0 0-4.6-2.47m2.03 50-2.43.14m-.57.88.2-.41m-7.67 13.65.13.18m38.44-2.14.2.34m-.2-.34-3.64.16m0 0-5.29 1.08m0 0-4.97 2.54m0 0-4.65 3.04m0 0-4.61 3.13m0 0-4.84 2.74m0 0-5.43.84m0 0-4.3-3.4m0 0-1.12-.96m2.42-4.37-3.66-4.13m0 0-1.03.01m-.25 11.41-1.21 5.34m0 0-2.98 2.84m.37-1.27.17 5.46m0 0 .6 2.86m-5.2 3.82.6-.8m2.07 29.48-1.09-5.15m0 0-1.39-4.37m33-86.48-1.2-2.22m.22 13.62-.94-5.2m0 0-4.85-2.52m0 0-1.72-.23m6.98 8.5-4.7 2.85m0 0-2.03.66m28.52-18.29-3.97 3.91m0 0-3.72 4.17m0 0-3.52 4.33m0 0-4.31 3.46m0 0-4.83 2.8m0 0-4.32 3.5m0 0-.65 3.02m7.04 6.8-5.55-.2m0 0-4.5.67m-1.8 5.36 3.5-3.82m0 0 5.12-2m0 0 1.09-.15m-9.95 12.34 2.18-2.14m.7-1.34-.58 1.1m-9.8 24.36.35-1.07m-.16 12.48-1.5.96m1.43-1 .31.4m-1.57.89-.17-.42m-2.64 1.95 2.27-.7m-2.39 26.65 3.44-4.06m0 0 1.33.02m35.55-106 3.54-4.02m0 0 4.73-2.97m0 0 4.77-2.88m0 0 4.8-2.8m0 0 2.25.21m-30.42 34.24 2.14-5.1m0 0 .4-.64m3.66 16.79-5.37 1.18m0 0-5.3 1.74m0 0-1.94-.05m5.44 3-5.25-1.86m0 0-5.46.37m0 0-3.44 3m-1.63 21.88.48-4.1m1.43 17.75 3.94-3.91m0 0 3.64-4.22m0 0 4-3.9m0 0 4.2-3.63m0 0 5.23-1.63m0 0 4.22-3.61m0 0 .58-4.04m-20.3 21.5 4.2 3.6m0 0-1.54 5.07m0 0-4.62 3m0 0-5.45 1.13m0 0-1.86.58m-.12 2.96.23.72m1.48 6.42-.38-4.98m0 0-1.03-1.37M627.48 1086l4.97 2.5m0 0 4.76 1.85m0 0 2.62 4.65m-3.96 38.15-5.46.9m0 0-5.05 2.36m0 0-4.5 3.3m0 0-4.75 2.93m0 0-2.76 3.72m0 0 1.06.38m4.3 1.8-.16-1.46m.56 3.87-.42-5.35m0 0 1.53-4.17m-18.33 40.93.12-.1m-1.26-.09-.01-.01m0 0 .7.22m-11.88 60.33 5.49-.7m0 0-3.65-3m0 0-5.2-.4m53.69-143.52.8.71m2.66 6.79 2.6-4.29m0 0 .71-.42m4.83 30.87-5.01 2.45m0 0-5.07 2.35m0 0-4.3.41m-2.36 7.55-2.53 4.95m0 0-3.3 4.41m0 0-2.46 2.37m1.02 1.52-.72-2m-15.8 18.12-.01.03m19.74-13.35 1.81 1.94m0 0-3.53 4.32m0 0-4.03 3.85m0 0-4.31 2.7m0 0-4.48 3.25m0 0-5.3 1.73m0 0-1.32.45m-.96.26.21-.06m0 0-1.04.26m36.23-57.48.6 1.98m35.17-44.7-4.39 3.44m0 0-4.4 3.3m0 0-.44.89m0 0-1.98 5.22m0 0-1.73 5.3m0 0-2.9 4.74m0 0-4.18 3.68m0 0-5.04 2.08m0 0-4.24 3.62m0 0-3.73 4.15m0 0-2.53 4.92m0 0-.22 1.52m3.83 19.16-4.5.94m0 0-5.17 2.03m0 0-2.4-.28m7.27 7.82-4.51 3.23m0 0-4.38 3.46m0 0-4.68 3.05m0 0-3.25 3.13m.04.15-.05-.18m-12.65 17.4.23-.44m-.32-.2-.14-.08m-1.35-.8.28.16m-.29-.15.62.32m.88.54-.88-.54m-7.14 47.25.14.36m-.04-.13-.48-1.13m59.66-115.7-4.72-2.11m0 0-3.71-2.22m3.82 13.04-.33-.96m11.44-3.5-2.73 1.25m0 0-4.7 2.62m0 0-3.8 4.07m0 0 .12-3.48m-4.86 5.76.34 2.94m0 0-1.19 1.16m0 0-.81.67m1.09-5.01.67.28m-1.04 4.14 1.28.26m-.25-.05-1.02-.22m.13.32h-.1m19.16-13.94-3.67 4.2m0 0-3.44 4.38m0 0-3.32 4.5m0 0-3.4 4.41m0 0-3.92 3.98m0 0-4.27 3.6m0 0-4.65-.13m0 0-.96-.5m35.74-62.38-1.86.7m2.74-.61-.88-.1m-6.65 18.34-.27 5.07m0 0-2.17 4.22m2.55-9.2-3.9-3.95m0 0 .03-5.06m0 0 3.61-2.92m-1.06 22.24-.98-1.14m-.37-.25.35.25m-23.25 39.26 3.96-3.95m0 0 3.94-3.95m0 0 .4-1.54m-1.86 4.62-3.83 4.07m0 0-4.02 3.86m0 0-4.64 3.1m0 0-.55.23m-1.09 5.58-3.94 3.96m0 0-4.16 3.72m0 0-2-1.34m-5.13 22.6-.63-.35m65.16-127.52 2.94 3.67m0 0-.95 2.18m0 0-2.8 4.84m0 0-3.38 4.45m0 0-3.6 4.26m0 0-.8.75m-8.8 28.61.42.16m-.37 9.42-.86.4m2.66-4.83-.31.67m-28.17 36.66-2.14 3.98m2.22-3.4.05.18m-.02-1.37-1.46 5.07m0 0-3.12 4.64m0 0-.66 1.45m-15.38 26.09 4.48-3.1m0 0 3.43-3.2m-13.4 38.16.2 1.4m.01.1-.19-1.45m79.25-186.04.24 5.58m0 0-1.09 5.3m0 0-1.28 5.42m0 0-3.59 2.95m0 0-.87.52m-3.97 36.9-1.96 5.22m0 0-1.7 3.97m0 0-2.96 4.74m0 0-2.37 4.2m8.8-19 .18.86m-47.83 71.36.14-.08m2.93-3.47 1.45-2.14m-16.64 52.1-2.49 4.83m0 0-1.81 5.28m0 0 .54 4.11m0 0 .55-.7m69.18-145.05.26-.21m5.44-11.57-2.13 5m0 0-2.25 5.1m0 0-.9 1.88m-61.92 107.39-.9-1.7m.9 1.7.02.1m68.25-122.3-.41 1.18m0 0 .03-.09m-43.03 63.5.04-.06m-27.71 85.43.67-5.16m0 0 .54-1.96m13.93-63.06-.15.04M367.97 1008.5l-.24-5.58m0 0-.36-5.4m3.88 25.67-.08.15m0 0 .03-.07m24.6 28.36 1.52 3.24m5.26 8.48.5.51m.04-.05-.08.08m13.98 3 1-4.58m-33.46-26.77.2-.13m55.6 48.46-.01.02m.02 0 1.9-.2m-.02-.02 3.76 3.74m0 0 2.67 4.01m-8.65-7.52-4.54-3.18m0 0-5.34-.84m0 0-1.09 1.27m23.62 2.13 5.51-.68m0 0 3.62-2.12m57.42 18.91-1.08-1.57m0 0 1.5 2.22m0 0-.42-.65m-9.42-1.06.4-.06m-16.57-9.21-1.43-1.66m1.4 1.61.03.05m57.4 5.84.27-3.88m12.8-.77 2.67 5.4m-22.86 6.04 3.87-2.6m0 0 3.26-4.33m55.64-10.04.58-.69m5.23-1.8-.13-.11m-3.29 3.37 2-3.07m-3.17.84-.64.77m-1.22 1.34.58-.59m25.52-8.88-.2 4.13m0 0-5.52-.58m0 0-.26 5.2m0 0 1.46 1.48m-21.48-.86-2.23 2.86m-1.25.54 1.36-4.47m-9.64 2.08.46 1.79m-60.65 9.4-3.16-4.5m0 0-1-1.9M664.6 1064l-.19-.1m-.01 0-4 3.24m0 0-2.67 4.9m0 0 1.47 2.84m5.4-10.88v.02m15.52-14.56-2.08 5.13m0 0-2.45 4.98m0 0 .84 5.11m0 0 .56.2m15.87-15 .9-1.06m-.03.01-.87 1.05m4.72-15.76 1.27 2.44m5.74-14.13 1.01 5.39m0 0-1.04 5.45m0 0-4 1.55m-13.2 10.6-2.68.88m-24.45 28.53-1.28.02m-151.77 176.71.31-.4m27.5-2.14.24.37m39.17-.97-.33-1.52m-14.2 8.55-5.52-.28m0 0-4.72 1.51m63.95-18.27-1.25-1.23m13.09-15.2-2.67 3.25m0 0 .28 3.66m-96.22-101.41h-.02m27.28 90.04 4.52 3.25m0 0 1.08.79m16.08-37.82.38-.12m19.44-8.5.01-.07m16.44 2.3h-.04m-8.32-65.88.01-.06m47.82-47.48 4.79-2.3m0 0 .9-.6m.96-.51 3.94-2.2m-253.73-2 .9 4.62m59.1 91.54-5.42.18m0 0-5.2-1.94m0 0-4.22-3.61m0 0-2.09-3.2m16.96 7.88-.04.69m.07-1-.03.33m34.42 36.96.1 5.58m0 0 .4 5.56m0 0-4.26 3.1m0 0-5.5.96m0 0-5.04-1.84m0 0-1.35-2.25m117.4-84.1-1.1 5.37m0 0-3.29 4.49m0 0-3.89 4m0 0-4.48 3.28m0 0-5.09-.31m35.43 46.55 2.24 4.68m0 0-2.2 4.66m0 0-4.98 2.02m0 0-3.85-2.95m-8.88 18.79.03.1m4.14 6.48-1.54-.19m7.76-18.31 4.4-.15m0 0 .18 5.36m0 0-1.94 5.22m0 0-3.15 4.58m0 0-4.47 3.27m0 0-2.06.36m.82-.13-.6-.08m85.18-151.71 1.95 4.38m0 0-.93 5.5m0 0-2.3 5.08m0 0-3.16 4.58m0 0-4.14 3.7m0 0-3.8-1.66m0 0-.88-.82m-10.43 35.85 2.23.45m-280.4-49.98-1.52 5.15m1.24-5.94.03.04m163.36 140.91 2.18-2.24m-16.08-2.43.02-.06m22.46-5.26-1.81 3.16m-20-14.41.3 3.12m0 0 .14.32m59.05-8.6.17.24m7.89-6.24-.7.3m-7.02-4.1v.02m-9.56 5.7-.1.04m-76.23-7.7.05 1.4m5.86-.45-5.12 1.05m0 0-2.12-5.2m182.39-94.99-.48 1.34m.46-1.08.06-.3m-2.17-.61.02-.06m-4.51 11.98.02-.03m-.05 1.47.04-1.7m-149.18 57.53-.02-.01m-25.62 64.28 3.67-1.79m0 0-2.12 1.14m-4.72.98.33.35m8.43-4.27.14-.82m74.36-112.8-3.9.88m.26-.04-.89.03m.03 0h.67m14.4 135.73.02.83m1.11-9-.64 1.32m.64-1.32 2.88-3.3m4.64 3.9-.04.68m1.52-3.1 1.48-1.03m1.23-.4-1.23.4m3.88 1.1-1.62-1.44m-148.89-125.78h.02m127.91 40.42-.02.05m12.3 57.97-.68-.05m.44-.1 2.22 1.54m0 0 .9.81m-.19-.21-1.23-1.13m28-109.82.36 2.6m-41.86 28.8h.02m-48.3-2.74v-.02m109.6 16.2.4-1.35m-194.99 15.33.05.2m4.15.99.94 1.17m-.03-.03 1.87 1.06m-9.82-11.53-1.01-3m.92 2.78.88 2.1m17.6 2.9.77-1.83m-4.75 7.23.7-.3m4.1-7.22-.1.63m154.46 10.2-1.53.87m-217.52-49.86-2.47-.76m-.58-.57.9.87m-.93-1.7-.16.62m200.28 127.12.4.62m4.1 2.17 2.2-.5m.12-.12-2.5.6m-147.58-2.8-2.35 5.07m-15.57-9.72-1.07-1.07m.03.06.66-5.01m0 0 1.43-1.33m125.15 32.53-5.36 1.56m0 0-3.07 4.14m0 0 .4.63m1.92-7.13.04.34m-1.65-97.47-.86.65m5.33-4.28 4.7-2.94m0 0 5.61-.9m.54.13-.54-.14m-.98 5.36.82.02m-.17-.02h-.6m-86.7-8.57-.02.03m-.12.19-2.27 5.07m0 0v3m-50.1 46.75-.06.03m-65.5-135.5v-.02m0-.03.03-.6m36.37 45.17h-.02m0 .04-.07.08m.08-.1.05-.12m15.35 17.5.3-.39m-.01 1.83-.1.03m-.04 0-.3-.2m.26.18-.32-.25m1.83-.17-1.42.44m1.88-.62-.83.32m.01 0 1.71-.71m13-16.76.03.07m154.93 7.07.02.03m12.53-4.52h-.02m86.34-61.03-.04-.01m-219 142.52-1.19 1m83.7-58.84.01.03m1.33-4.9-.25.47m92.82 5.46-2.33 1.06m1.98-.86 4.59-3.16m0 0 1.52-1.55m-166.78 19.44.96-.51m-.58-6.93-.74-.01m-16.38.73 2.05.13m20.17 104.33.57-.4m-.57.4-.14.14m-1.22 2.9-.12.75m14.28-17.5 2.33-.2m1.86.36 1.29.6m-32.28-129.87.74-.68m-19.87-3.64-.51-.3m.51.3 5.32 1.7m0 0 5.42 1.36m0 0 4.49.38m131.26 102.28-3.46-4.96m7.91 7.02 3.72 1.71m1.23-79.3-.05.07m-113.31 99.97 4.14 3.68m0 0 3.82.77m0 0 1-.53m-3.27-22-1.61-.8m1.61.79 1.33.94m-8.92 1.15.63 4.02m8.35-5.1-.8-1m155.16-117.57.06-.03m-223.3 66.02-2.04-.43m1.87-2.43.6.16m-49.43-81.66.03-.03m0 0-.03.03m-12.65 9.87.58.75m-2.5-7.93-.3.47m.9-.79.03-.02m15.14 12.48.54-.7m-3.7 3.35.45-.18m125.83 46.66v-.01m-15.69-13.73v-.06m58.5 67.78.08-.22m.89-1.66.05-.03m-1.03 1.91.97-1.88m9.06 12.94 4.7-3.7m4.22-6.95.03-.1m-3.55 6.23.02.03m1.33-2.21.84-1.1m20.25-83.59.35.4m0 .06v-.06m-.16-.2.16.25m-4.54 2.4 2.97 2.19m-203.76-42.7.01.03m25.28 70.69.03.08m218.55-36.21 1.38-.27m-165.36 57 .22-.31m29.11-51.71-.5-.58m-34 127.95 4.8-1.04m-.61.6-.02.01m-3.2-16.37-.6.51m-8.23 2.09-.86 5.51m0 0-.1 3.01m207.28-128.6.53-1.66m0 0-.06-1.22m-73.02 8.6v.03m-122.84 4.1-1.06-.56m-9.29-2.67h.02m9.27 2.67-5.28-1.8m0 0-3.1-.68m-.03-.01-.86-.17m0 0h-.02m11.08 5.56-.67 1.02m147.96 11.61-5.01 1.68m0 0-3.07 4.12m-105.36 20.98-2.2-.65m.59-.23-2.04.6m.74-.2.7-.17m40.9 25.95h-.33m18.68 6.96-.67-.35m51.81.14-1.06-.74m-14.26-2.12.32-.25m22.02-11.66.06-1.18m10.96-17.72-.18-.44m.2.51-.7-1.46m.7 1.46-2.7 3.02m-1.3.14 1.9-.2m-90.06 12.02 1.84.96m-10.56-21.23.95-.15m-.67 7.75-.7-.64m45.67-35.64-.96-1.55m-13.3 3.23-4.93 2.6m0 0-1.61 1.57m1.65 3.63-.85-.76m.02.04.63.99m-149.02-29.44-.16 1.11m-2.43-4.8.73-.3m1.87 4.06-1.98-4.46m-9.7-9.73.02.04m-.18-.05.36.27m258.72-7.94.3-1.94m-1.07 4.64-1.52 1.16m-143.12 86.43-4.58.3m0 0-.25.15m-.1-.23-.27.41m16.1 10.04-.15.2m0 0 .21-.3m.49-.74-3.77 4.11m0 0-3.3 1.72m-6.02-15.81-1.18.54m1.18-.54.6-.15m6.06 7.03-.02.7m0-.1v.1m-44.66 10.37-2.3 3.38m111.58 60.45.9.31m-.51-.03.67.05m-.62-.18.42-3.8m11.55-66.48-.18.06m-26.54 9.58 2.1 1.81m10.56 41.63-1.2-1.93m9.41-22.1-.34.27m10.21 6.8-.44-1.25m42.56-60.17.03.17m-.02-.14-.13-.94m8.09-19.83-.02.01M480 1229.67l-.32.36m71.17 8.32 2.8-.85m.81-1.04-.4-.7m.45.77-.05.08m-.8.9.01-.02m-14.56-.52 4.23 1.26m-6.21-9.4-2.69 4.87m0 0 4.67 3.27m21.33-14.74-.05.17m-4.76-4.97-1.58.06m6.23 2.3-.12-.38m92.15-101.83.29 1.9m-179.15-12.16h.04m-29.46-15.92.2-.54m0 0 .07-.28m.01.12v.08m.13-.45-.36-.59m0 0 .36.59m.02.02-.02-.02m-.33-.54-3.9-2.69m0 0-1.82-.4m259.75-49.78.36.2m-7.3 16.7-.16 1.72m.27-2.19.3-.86m-221.3 50.11-.14.13m6.98 6.77-1-.2m.94.2 2.42-.27m180.26-49.29v-.03m-197.27 67.37v-.08m-.19-2.05-.02-.02m-.44-.57-.33-.48m.16.24-.03-.08m160.23-22.9-2.8-.28m-6.84-4.4-.65-.29m-7.73 5.06 4.76-.28m-5.61.45.85-.17m-.02 10.33.2.15m6.6-15.42v-.01m-78.62 34.83h1.31m.18 0-.62-.02m.82.46-.88-.44m9.66 9.4-1.46-.4m-1.4-10.41-.47.23m79.5 17.6-.04.03m10.17 18.71.04-.05m0 0 .78-1.24m49.06-111.73-.08.24m.32-.66.18 4.05m7.47-11.44h.02m-225.19 119.9-.54-.96m.65.37-.14-.13M411.13 1112l.13-.17m174.51 38-1.03-5.4m0 0 .12-5.57m0 0 .24-.79m.57 11.74.4.03m15.87-4.36-.02.02m.05-.05-.03.04m.77 3.9-.28.6M445.09 1177l1.76-1.7m94.96 15.6 3.18 1.36m3.62-7.17-.55-1.48m.55 1.47.1 5.2m-104.39-99.62-.08.13m-7.3-4.04-.03.15m166.33 14.45.02.01m-107.57 115.29-.02-.01m-.02-.05.03.1m-1.8-8.62-.04-.05m0 .06-.43-4.1m-7.24-44.23.71-1.64m-.1.22-1.38-3.19m-1.18 7.13-.54.39m.23-.15 1.26-1.27m-15.77-12.1-1.05 3.24m-77.25-84.9-2.18-1.62m153.97 139.22-2.14-2.1m.5-15.3 1.19-3.02m5.39-.94.54.71m59.49-13.15-5.48.97m0 0-1.7.72m8 3.06-.6.37m0 0-.04.02m-6.88-4.24.03-.07m-86.07-9.76 1.47-1.42m179.73-89-.1.4m-7.02 7.92.18 1.25m.42 1.55-.19.44m.08-.2.05-.03m-67.43 18.32h.02m-103.77 101.46 2.22-2.35m-9.34 4.76 1.86-.07m90.7-117.34-1.62.3m2.8 135.33.36 1.58m15.54-10.15-.33-1.03m-217.07-135.72h-.02m194.83 49.09-.1.09m27.26-45.59.92-.35m-76.5 15.8h-.03m-88.4 27.31-.13-.6m-47.54-33.62-.14-.4m1.13-1.68-1.26 1.62M535.34 910.9l.02-.01m41.6 224.86.18-.42m-8.12 4.5.1-.27m1.9.67 2.63-1.5m11.92-.87-.62.3m-84.03-3.14-2.82-1.22m.02-4.15.6-.38m-.33 7.45-2.45.9m-115.52-88.79.83-.85m-.36-.2-.47 1.05m0 0 .06-.04m179.95 173.14-1.06-.5M701.96 1036v.02m-.01 0h.02m-221.54 144.26-3.1.95m6.87-11.51-.12-.1m82.82-50.17-1.63.84m1.33-4.3.2-.05m90.3 6.55 1.3-.25m7.64-7.85-.23 1.77m-165.34 19.38.12-4.81m0 0-1.64-1.45m-17.05.6-1.56.76m22.18 106.84 1.22-2.89m19.42-14.03.05-.27M470.24 1087l.5.3m79 146.18 4.48 2.53m67.47-42.33.27 1.66m-94.1 21.73.55-1.27m-5.57 5.06.58-.6m-5.26-21.21-4.86-.89m-1.89 3.7.34-2.41m163.7-117.84 4.68.38m-216.98 71.56.05.13m-.52-1.07.52 1.07m-11.38-8.55.26.13m-64.46-78.64 1.32 5.28m0 0 .9 1.5m13.98 4.77-4.2 3.74m111.49 31.83-.16-.26m7.03-3.55 4.58 2.1m0 0 3.9-3.65m0 0 .34-1.16m62.31 73.54-.34.35m-18.18-1.55 1.15.09m15.09 5.57 1.94-4.1m26.98-84.06-.04.02m-7.89 4.5-.82 5.16m0 0-3.87 3.7m2.6-4.8 1.18 1.22m-124.65 47.72 3.33.73m27.76-39.07-3.16-4.5m0 0-.29-.66m6.04-15.4 2.73 2.93m-37.44 131.25-1.12-.36m-3.51 4.22 5.4 1.2m0 0 1.14-.2m-5.55-20.87-.71 2.57m7.73 5.63.42-1.18m191.12-127.64-1.58-3.07m-226.35 4.39v-.05m30.96 14.9 1.5-.77m-.35-2.87.56 2.84m-10.05-5.93-1.61-.14m144.48 29.93-.03.02m-98.8 29.78-1.22-.98m141.88-99.23-.01.02M552.54 1173.3l4.82-2.46m0 0H559m1.8-.36 1.98.04m47.08 5.14 2.07 1.63m17.69-12.08.48-1.28m-77.42-2.18-5.52-.3m0 0-4.96-2.5m0 0-1.65-.92m9.8 3.77.53.06m-10.9-14.1-1.33-5.24m0 0 1.77-1.94m1.05-.15h-.02m.45.12-1.37-.13m.61 7.85-.75-.04m26.82-35.91.18-.54m-2.66 5.93.61 2.76M417 1093.02l-.5.94m-.93-5.57-.92-.31m244.9-13.25 3-.63m-206.67 61.65.16-.43m.08.3-.23-.84m73.97 36.55-.15.16m-52.47 9.8-.27 1.43m112.09 59.74-.39-.29m21.34-146.6-.03.02m-23.52 128.93 5.45.6m0 0 3-.8m2.71-24.04-2.12.73m58.67-74.07v-.02m-174.54 103.54.34-.82m74.16 7.46.41-.65m.56-20.62h-5.38m10.7 6.49-.19-2.89m-6.15-2.01-4.9.98m-104.95-127.7.08-.15m-.18-.8.19.96m-8.39-3.93 3-.06m18.68 33.05.02-.02m233.9-67.12 1.66-3.2m-222.36 53.16 2.75 4.77m0 0 2.57 1.88m145.29-8.14 5.02 2.99m-21.35-6.43 5.3-1.18m0 0 .71-.1m-6.72 16.26-2.53-4.98m0 0-.91-2.78m2.05-3.33.34-.11m-71.32 29.82H532m0 0-5.16 1.98m0 0-2.54 2.07m-68.67-48.54-.07.01m146.18 58.77-.26.65m-55.55 46 2.85-2.13m-53.02 26.03-.15.83m-8.38-16.87-1.04-1.67m7.45 10.25.2-.7m1.34-50.46-.42-.6m-106.83-75.35-2.98-4.7m0 0 1.7 3.42m0 0 2.52 4.98m0 0 2.52 4.98m0 0 1.2 2.37m3 6.62.92.92m0 0 2.76 4.33m51.97 97.77.4-5.49m0 0-.6-5.55m0 0-2.15-5.06m0 0-.94-.54M412.72 1124l-2.27-3.7m-3.9-31.77-.72-1.18m0 0 1.98 5.18m0 0 2.84 4.76m0 0 3.81 4.07m0 0 2.74 1.94m-6.92 4.72.3.4m.78.3-.87-.34m46.2 74.23 2.35 5m0 0 2.82 2.14m1.04-13.8 1.01 3.13m9.8 23.3 1.27 5.3m0 0 1.97 5.13m0 0-.04 3.34m-2.57-38.05.47 4.58m0 0 2.79 4.64m0 0 4.33 3.48m0 0 2.07 5.05m0 0-2.7 2.53m9.8 23.6h.07m-4.9 10-.05.67m0 .07-2.15 1.03m-18.55-74.63 5-.42m0 0 5.36 1.52m0 0 4.8 2.82m0 0 5.37 1.06m0 0 5.4 1.36m0 0 2.44.89m1.28 42.75 3.84-3.42m0 0 5.42-1.27m0 0 5.27 1.4m0 0 5.48-.5m0 0 5.45-1.09m0 0 1.95-2.38m-19.71 37.45.65-4.7m0 0 .56-.42m-5.72-64.31-.93-1.16m6.39 17.65-1.18 2.15m-9.62-63.1 4.67-3.07m0 0 4.67-3.06m0 0 4.73-1.6m0 0 5.43.9m0 0 .67-.04m-17.16 6.44 3.94 3.35m4.06 13.62-4.7.23m0 0 2.18 2.49m0 0 4.45 3.38m0 0 1 .76m-1.89.97.65-.43m-2.46 1.77 3.68 3.96m0 0 4.26 3.4m0 0 2.09 2.97m-1.6 57.78 1.09 5.18m0 0 5.28 1.13m0 0 2.03-.9m3.32-90-5.4.71m0 0-2.86-.46m14.28 55.73 5.28 1.8m0 0 5.52.62m0 0 5.58-.28m0 0 5.27-1.72m0 0 2.68-1.14m-26.23 55.26 3.22 2.65m5.02-133.84-4.55 2.74m0 0-5.52.43m0 0-.72-.06m16.99 45.61-4.94.55m0 0-4.89 2.7m0 0-5.04 2.47m11.18 9.94-.08.07m.04-.08-.08.07m.04-.07-.1.03m-9.21 9.64-.12-.32m5.48 43.1 1.08 4.68m0 0 4.66 3.06m0 0 5.1 2.16m0 0 4.01.38m-.1-104.54-3.31 4.09m0 0-.07 2.6m2.11 22.65-4.9-2.7m0 0 3.7-.36m0 0 4.94-.82m.21 2.8-4.95 2.5m0 0-1.04-.27m2.7 8.08 4.3 2.97m0 0 1.63 2.4m-4.38 27.34-5.58-.2m0 0-3.94-2.8m0 0 .07-.85m23.22-35.7 1.67 2.52m-12.65 16.57 4.13-3.73m0 0 4.84-2.65m0 0 5.46.55m0 0 1.88 4.63m-10.25 20.73-2.57.22m16.14-34.3 1.93 2.52m-7.96 22.56 5.43-.39m0 0 3.86 2.3m0 0 1.1-2.07m-10.6-5.58-.94-1.3m-1.06 27.5-.44 5m0 0-1.4 3.69m24-63.02.72 2.38m-2.53 2.98 2.07 4m-2.3 2.37 4.8-2.8m0 0 3.22-1.5M576.93 1197l4.51-3.09m0 0 .98-.48m-6.84 16.94 1.58-.89m-4.38 2.42 2.58-.35m-2.7 26.3-2.21 4.96m0 0 4.12 2.91m0 0 4.98-1.98m0 0 5.07-.99m0 0 5.24-.1m23.12-114.84 1.13 4.28m-12.43 34.41-4.82 2.7m0 0-4.18 2.47m0 0 4.45 2.52m-11.55 12.56 4.72-2.9m0 0 5.26-1.88m0 0 5.25-1.84m0 0 5.43-1.27m0 0 5.51-.9m0 0h1.5m-25.44 25.59.98.6m-4.75 10.05.01-.71m.62 12.45.44 5.52m0 0-3.7 3.5m0 0-3.99-1.16m6.8-16.56-.06-.07m1.72 21.3-.5-3.69m0 0 3.64-4.23m0 0 2.6-2.38m27.12-79.44-.03-.2m-17.98 33.62h.01m-7.26 28.66-3.22-4.57m0 0 1.48-2.77m0 0 5.16-.41m-9.38 35.53.28-3.56m0 0 2.72-4.88m0 0 3.64-4.12m0 0 3.58-2.54m38.13-90.35 2.27 1.27m-25.87 40.5-3.51-1.37m0 0-1.02 2.7m-8.16 46.46 1.54-.35m0 0 4.16 2.18m50.45-101.8-.42.06m-42.32 115.06-1.49-5.3m0 0 1.08-5.41m0 0 3.34-4.4m0 0 4.77-2.75m0 0 .58-3.46m58.47-140.48.52-.23m-7.52 27.13-.25.03m-46.55 79.87-.6-5.35m0 0 2.8-4.79m0 0 3.15-4.6m0 0 2.95-4.75m0 0 3.6-4.26m0 0 3.54-4.32m0 0 .4-.55m-20.52 62.2-1.9-5.1m0 0 1.23-5.38m0 0 2.64-4.9m0 0 3.65-4.2m0 0 3.04-4.63m0 0 2.09-5.17m0 0 1.84-5.27m0 0 .57-2.02m40.97-70.25-.12.3m-.04.07.09-.2m14.17-24.48-3.64 4m0 0 .62-.32m0 0 3.2-3.72m6.57-13.08-.2-.35m-66.23 131.74-.66 5.52m0 0-1.06 5.48m0 0-1.6 2.65m6.28-16.96-.68 5.53m0 0-.62 1.6m-260.27-184 .03-.15m37.4 33.22 2.35 1.68m-27.5-24.2 1.08 1.7m119.41 53.96-.02-.01m103.31-5.47.63-.74m3.17-.87-3.16.84m32.62-4.62 1.01-5.47m0 0-.5-1.54m-10.81 15.95-2.6-1.46m52.31-35.89.16-.78m21.2-21.93.15 5.58m0 0 .28 1.98m3.23-11.92-1.46 5.4m0 0-1.46 5.38m0 0-.03 2.1m-16.74 10.12-.6.1m-149.43 203.13-4.56-1.38m0 0-2.07 5.19m0 0-2.08 5.18m0 0-.4 1.03m-60.1-106.32 2.37-1.3m22.85 52.02-1.36-5.42m0 0-.11-3.79m7.83 8.75-3.73-4.16m0 0-3.72-4.16m0 0 4.57-.44m0 0 5.35 1.57m0 0 3.3 3.2m113.17-15.49-1.77 4.94m.11.58 1.57-5.28m0 0 4-3.83m0 0 1.94-1.06m-17.93 27.14 1.95-5.1m0 0 4.04-3.8m0 0 4.85-3.3m-10.81 12.3.4 1.63m77.08-123.1.04-5.54m0 0 2.41-5m0 0 3.37-4.45m0 0 3.51-4.34m0 0 3.37-3.9m-104.2 207.82 4.57-3.2m0 0 3.23-2.83m3.67 42.76-4.17 3.72m0 0-4.56 3.22m0 0-4.85 2.76m0 0-5.07 2.35m0 0-5.22 1.97m0 0-5.35 1.62m0 0-5.43 1.3m0 0-5.5.98m0 0-5.53.71m0 0-5.57.43m0 0-5.59.16m0 0-5.58-.1m0 0-5.57-.38m0 0-5.55-.63m0 0-5.52-.9m0 0-5.46-1.17m0 0-5.39-1.46m0 0-5.3-1.75m0 0-5.2-2.07m0 0-5.04-2.39m0 0-4.86-2.74m0 0-.7-.43m-14.55-14.9-.3 1.53m16.17 30.68 2.33 1.55m115.28-69.56-2.28 5.09m0 0-3.15 4.6m0 0-3.82 4.08m0 0-4.31 3.55m0 0-4.67 3.06m0 0-4.93 2.62m0 0-5.12 2.22m0 0-5.27 1.85m0 0-5.38 1.5m0 0-5.46 1.2m0 0-5.5.9m0 0-5.56.61m0 0-5.57.34m0 0-5.59.07m0 0-5.58-.19m0 0-5.57-.46m0 0-5.54-.72m0 0-5.5-.99m0 0-5.43-1.26m0 0-5.37-1.56m0 0-5.27-1.85m0 0-5.14-2.17m0 0-5-2.5m0 0-3.91-2.31m110.9 11.4-4.17 3.71m0 0-4.57 3.21m0 0-4.86 2.75m0 0-5.07 2.34m0 0-5.23 1.96m0 0-5.35 1.61m0 0-5.43 1.29m0 0-5.5.99m0 0-5.54.7m0 0-5.57.42m0 0-5.58.15m0 0-5.59-.11m0 0-5.57-.38m0 0-5.55-.64m0 0-5.51-.9m0 0-5.46-1.19m0 0-5.4-1.46m0 0-5.3-1.76m0 0-5.18-2.07m0 0-5.04-2.4m0 0-4.86-2.76m0 0-.57-.35m118.78-1.57-2.57 4.95m0 0-3.46 4.38m0 0-4.08 3.8m0 0-4.52 3.28m0 0-4.83 2.8m0 0-5.05 2.39m0 0-2.29.93m-91.98-37.47-.7-.45m0 0-4.55-3.24m0 0-4.23-3.64m0 0-3.82-4.07m0 0-3.3-4.5m0 0-2.64-4.91m0 0-1.74-4.8m-1.04-5.84 1.13 5.46m0 0 2.13 5.16m0 0 2.96 4.73m0 0 3.59 4.27m0 0 4.08 3.82m0 0 4.44 3.38m0 0 2.39 1.58m-9.16 11.27-3.7-4.17m0 0-3.15-4.61m0 0-2.47-5m0 0-1.29-3.87m.1-.31 2.08 5.17m0 0 2.92 4.75m0 0 3.56 4.3m0 0 4.06 3.84m0 0 4.43 3.4m0 0 2.62 1.74m0 16.51-4.6-3.17m0 0-4.27-3.59m0 0-3.86-4.03m0 0-3.3-4.5m0 0-2.59-4.95m0 0-1.06-2.96m10.35 17.8-3.68-4.2m0 0-3.13-4.63m0 0-2.43-5.02m0 0-1.2-3.63m134.65 34.13-3.81 4.08m0 0-4.3 3.56m0 0-2.75 1.9m-123.69-10.6-.26-1.01M540 913.84l5.49-1.04m0 0 5.49-1.03m0 0 5.49-1.04m0 0 5.49-1.04m0 0 5.48-1.04m0 0 5.5-1.04m0 0 5.48-1.04m0 0 5.49-1.05m0 0 5.48-1.05m0 0 5.49-1.05m0 0 5.48-1.05m0 0 5.49-1.05m0 0 5.49-1.06m0 0 5.48-1.05m0 0 5.49-1.06m0 0 5.48-1.05m0 0 5.48-1.06m0 0 5.49-1.06m0 0 5.48-1.07m0 0 5.49-1.07m0 0 5.48-1.07m0 0 5.48-1.07m0 0 5.48-1.07m0 0 5.48-1.08m0 0 5.48-1.07m0 0 .78-.16m-228.74 35.52 5.57-.52m0 0 5.56-.52m0 0 5.56-.53m0 0 5.56-.54m0 0 5.56-.54m0 0 5.55-.55m0 0 5.56-.55m0 0 5.56-.56m0 0 5.56-.56m0 0 5.56-.55m0 0 5.55-.56m0 0 5.56-.57m0 0 5.56-.56m0 0 5.56-.57m0 0 5.55-.56m0 0 5.56-.57m0 0 1.89-.2m-81.12-129.67 2.95 4.74m0 0 2.95 4.74m0 0 2.96 4.74m0 0 2.95 4.74m0 0 2.96 4.74m0 0 2.95 4.74m0 0 2.96 4.74m0 0 2.96 4.73m0 0 2.97 4.74m0 0 2.97 4.73m0 0 2.96 4.73m0 0 2.97 4.74m0 0 2.97 4.73m0 0 2.96 4.73m0 0 2.97 4.74m0 0 2.96 4.73m0 0 2.97 4.73m0 0 2.96 4.74m0 0 2.97 4.73m0 0 2.96 4.74m0 0 2.97 4.73m0 0 2.96 4.73m0 0 2.97 4.74m0 0 2.96 4.73m0 0 2.96 4.74m0 0 2.97 4.73m0 0 2.96 4.74m0 0 1.14 1.82m93.74-124.4-3.36 4.48m0 0-3.35 4.46m0 0-3.35 4.47m0 0-3.35 4.47m0 0-3.36 4.47m0 0-3.35 4.46m0 0-3.36 4.47m0 0-3.35 4.46m0 0-3.36 4.47m0 0-3.36 4.46m0 0-3.35 4.47m0 0-3.36 4.46m0 0-3.36 4.46m0 0-3.36 4.47m0 0-3.36 4.46m0 0-3.37 4.46m0 0-3.36 4.46m0 0-3.36 4.46m0 0-3.37 4.46m0 0-3.36 4.45m0 0-3.37 4.46m0 0-3.37 4.46m0 0-3.37 4.45m0 0-3.37 4.46m0 0-3.37 4.45m0 0-3.37 4.45m0 0-3.38 4.45m0 0-2.98 3.94m0 0 4.03-3.87m0 0 4.03-3.87m0 0 4.03-3.86m0 0 4.03-3.87m0 0 4.03-3.87m0 0 4.03-3.87m0 0 4.02-3.87m0 0 4.03-3.88m0 0 4.02-3.87m0 0 4.02-3.88m0 0 4.03-3.87m0 0 4.02-3.88m0 0 4.02-3.88m0 0 4.02-3.87m0 0 4.02-3.88m0 0 4.02-3.88m0 0 4.02-3.88m0 0 4.01-3.88m0 0 4.02-3.89m0 0 4.02-3.88m0 0 4.01-3.88m0 0 4.02-3.89m0 0 4-3.88m0 0 4.02-3.89m0 0 4.01-3.88m0 0 4.01-3.9m0 0 4.01-3.88m0 0 4.02-3.89m0 0 3.18-3.09M540 913.84l5.36-1.59m0 0 5.35-1.58m0 0 5.36-1.6m0 0 5.35-1.58m0 0 5.36-1.6m0 0 5.35-1.58m0 0 5.35-1.6m0 0 5.36-1.6m0 0 5.35-1.6m0 0 5.35-1.6m0 0 5.35-1.6m0 0 5.35-1.6m0 0 5.36-1.6m0 0 5.35-1.6m0 0 5.35-1.6m0 0 5.35-1.6m0 0 5.35-1.61m0 0 5.35-1.61m0 0 5.35-1.61m0 0 5.34-1.61m0 0 5.35-1.61m0 0 5.35-1.62m0 0 5.35-1.62m0 0 5.34-1.62m0 0 5.35-1.62m0 0 5.34-1.62m0 0 5.35-1.62m0 0 2.3-.7m-146.77 44 4.53-3.27m0 0 4.52-3.28m0 0 4.53-3.27m0 0 4.52-3.28m0 0 4.52-3.28m0 0 4.53-3.27m0 0 4.52-3.28m0 0 4.52-3.28m0 0 4.52-3.29m0 0 4.52-3.28m0 0 4.52-3.28m0 0 4.51-3.29m0 0 4.52-3.28m0 0 4.52-3.29m0 0 4.52-3.29m0 0 4.51-3.28m0 0 4.52-3.3m0 0 4.51-3.28m0 0 4.51-3.3m0 0 4.52-3.28m0 0 4.51-3.3m0 0 4.51-3.3m0 0 4.51-3.29m0 0 4.51-3.3m0 0 4.51-3.29m0 0 4.5-3.3m0 0 4.52-3.3m0 0 4.5-3.3m0 0 4.51-3.3m0 0 1.74-1.27M540 913.84l-5.37 1.54m0 0-5.37 1.53m0 0-5.37 1.54m0 0-5.37 1.53m0 0-5.38 1.52m0 0-5.37 1.53m0 0-5.37 1.52m0 0-5.38 1.52m0 0-5.38 1.51m0 0-5.38 1.5m0 0-5.38 1.5m0 0-5.62 1.54m41.44-160.78.9 5.52m0 0 .9 5.51m0 0 .9 5.51m0 0 .9 5.52m0 0 .9 5.5m0 0 .89 5.52m0 0 .9 5.52m0 0 .9 5.5m0 0 .92 5.52m0 0 .9 5.5m0 0 .91 5.52m0 0 .9 5.51m0 0 .91 5.51m0 0 .9 5.52m0 0 .91 5.5m0 0 .9 5.52m0 0 .9 5.51m0 0 .9 5.52m0 0 .9 5.5m0 0 .9 5.52m0 0 .9 5.51m0 0 .9 5.52m0 0 .9 5.51m0 0 .9 5.51m0 0 .9 5.52m0 0 .76 4.68M486.62 776l2.01 5.2m0 0 2.01 5.22m0 0 2.01 5.21m0 0 2.01 5.21m0 0 2.01 5.21m0 0 2.02 5.21m0 0 2 5.22m0 0 2.03 5.2m0 0 2.03 5.2m0 0 2.02 5.21m0 0 2.02 5.21m0 0 2.02 5.2m0 0 2.02 5.22m0 0 2.02 5.2m0 0 2.02 5.21m0 0 2.02 5.2m0 0 2.02 5.22m0 0 2.02 5.2m0 0 2.02 5.21m0 0 2.01 5.21m0 0 2.02 5.21m0 0 2.02 5.21m0 0 2.02 5.2m0 0 2.01 5.22m0 0 2.02 5.2m0 0 2.02 5.22m0 0 .93 2.4m0 0L473.37 801.1M540 913.84l-1.5 5.38m0 0-1.48 5.39m0 0-1.46 5.39m0 0-1.46 5.39m0 0-1.44 5.16m11.68.06L540 913.84m0 0-13.09 26.48m-130.05-61.6 5.42 1.35m0 0 5.42 1.35m0 0 5.42 1.35m0 0 5.42 1.35m0 0 5.43 1.35m0 0 5.42 1.34m0 0 5.42 1.34m0 0 5.42 1.33m0 0 5.43 1.33m0 0 5.43 1.33m0 0 5.42 1.33m0 0 5.43 1.32m0 0 5.42 1.33m0 0 5.43 1.33m0 0 5.42 1.33m0 0 5.43 1.32m0 0 5.43 1.33m0 0 5.42 1.33m0 0 5.43 1.32m0 0 5.43 1.32m0 0 5.42 1.33m0 0 5.43 1.32m0 0 5.43 1.32m0 0 5.42 1.32m0 0 5.43 1.32m0 0 5.43 1.32m0 0 2.09.5m0 0-3.72-4.16m0 0-3.71-4.17m0 0-3.72-4.17m0 0-3.71-4.17m0 0-3.72-4.17m0 0-3.72-4.17m0 0-3.71-4.17m0 0-3.72-4.17m0 0-3.71-4.17m0 0-3.72-4.17m0 0-3.72-4.17m0 0-3.71-4.17m0 0-3.72-4.18m0 0-3.71-4.17m0 0-3.72-4.17m0 0-3.71-4.17m0 0-3.72-4.17m0 0-3.72-4.17m0 0-3.72-4.17m0 0-3.71-4.17m0 0-3.71-4.17m0 0-3.71-4.18m0 0-3.71-4.18m0 0-3.7-4.18m0 0-3.7-4.18m0 0-3.71-4.18m0 0-3.7-4.18m0 0-3.71-4.18m0 0-1.35-1.53M590.8 935.5l-5.15-2.15m0 0-5.16-2.15m0 0-5.14-2.18m0 0-5.15-2.17m0 0-5.14-2.19m0 0-5.13-2.2m0 0-5.13-2.2m0 0-5.13-2.22m0 0-5.12-2.22m0 0-4.56-1.98m0 0 22.02 25.87M540 913.84l5.58.2m0 0 5.58.2m0 0 5.59.2m0 0 5.58.18m0 0 5.58.19m0 0 5.58.18m0 0 5.59.18m0 0 5.58.18m0 0 5.58.18m0 0 5.59.17m0 0 5.58.17m0 0 5.58.17m0 0 5.59.17m0 0 5.58.16m0 0 5.58.16m0 0 5.59.15m0 0 5.58.14m0 0 5.58.14m0 0 2.14.06M415.08 809.44l4.28 3.6m0 0 4.27 3.59m0 0 4.28 3.6m0 0 4.28 3.58m0 0 4.28 3.6m0 0 4.28 3.58m0 0 4.28 3.6m0 0 4.28 3.58m0 0 4.28 3.58m0 0 4.3 3.58m0 0 4.29 3.58m0 0 4.29 3.57m0 0 4.28 3.58m0 0 4.29 3.58m0 0 4.29 3.58m0 0 4.29 3.58m0 0 4.28 3.58m0 0 4.3 3.58m0 0 4.28 3.58m0 0 4.3 3.58m0 0 4.28 3.58m0 0 4.29 3.58m0 0 4.29 3.57m0 0 4.29 3.58m0 0 4.29 3.58m0 0 4.29 3.58m0 0 4.29 3.57m0 0 4.29 3.58m0 0 4.29 3.58m0 0 .62.52m0 0 4.9-2.7m0 0 4.88-2.7m0 0 4.9-2.69m0 0 4.89-2.7m0 0 4.89-2.7m0 0 4.89-2.7m0 0 4.89-2.7m0 0 4.89-2.7m0 0 4.88-2.7m0 0 4.9-2.7m0 0 4.88-2.71m0 0 4.88-2.7m0 0 4.89-2.72m0 0 4.88-2.7m0 0 4.89-2.71m0 0 4.88-2.71m0 0 4.89-2.71m0 0 4.88-2.72m0 0 4.88-2.7m0 0 4.89-2.72m0 0 4.88-2.72m0 0 4.88-2.72m0 0 4.88-2.71m0 0 4.88-2.72m0 0 4.87-2.72m0 0 4.88-2.73m0 0 4.88-2.72m0 0 4.88-2.72m0 0 4.87-2.73m0 0 2.22-1.24m-20.94 69.28-5.56.5m0 0-5.57.5m0 0-5.56.5m0 0-5.56.5m0 0-5.57.49m0 0-5.56.49m0 0-5.57.48m0 0-5.56.49m0 0-5.57.48m0 0-5.56.47m0 0-5.57.48m0 0-5.56.48m0 0-5.57.47m0 0-5.57.47m0 0-5.56.47m0 0-5.57.47m0 0-5.56.47m0 0-5.57.46m0 0-5.57.46m0 0-5.56.46m0 0-5.57.45m0 0-6.06.5m79.94-108.3L540 913.84m-148.74-53.06 5.25 1.9m0 0 5.26 1.89m0 0 5.25 1.9m0 0 5.26 1.88m0 0 5.25 1.9m0 0 5.26 1.88m0 0 5.25 1.9m0 0 5.27 1.86m0 0 5.26 1.88m0 0 5.26 1.88m0 0 5.26 1.87m0 0 5.26 1.88m0 0 5.26 1.87m0 0 5.27 1.88m0 0 5.26 1.87m0 0 5.26 1.87m0 0 5.26 1.88m0 0 5.27 1.87m0 0 5.26 1.87m0 0 5.26 1.87m0 0 5.27 1.87m0 0 5.26 1.87m0 0 5.26 1.87m0 0 5.27 1.87m0 0 5.26 1.86m0 0 5.27 1.87m0 0 5.26 1.87m0 0 5.26 1.87m0 0 1.44.5m-36.52 24.2 4.69-3.04m0 0 4.67-3.07m0 0 4.65-3.08m0 0 4.65-3.1m0 0 4.65-3.1m0 0 4.65-3.09m0 0 4.65-3.1m0 0 3.9-2.61m0 0-5.57-.15m0 0-5.59-.15m0 0-5.58-.15m0 0-5.59-.16m0 0-5.58-.15m0 0-5.58-.16m0 0-5.59-.15m0 0-5.58-.16m0 0-5.58-.16m0 0-5.59-.16m0 0-5.58-.16m0 0-5.58-.16m0 0-5.59-.16m0 0-5.58-.17m0 0-5.58-.17m0 0-5.59-.17m0 0-5.58-.19m0 0-5.58-.18m0 0-5.59-.2m0 0-5.58-.19m0 0-1.7-.06M540 913.84l-5.53-.76m0 0-5.54-.76m0 0-5.53-.76m0 0-5.54-.76m0 0-5.53-.76m0 0-5.53-.76m0 0-5.54-.77m0 0-5.53-.76m0 0-5.53-.77m0 0-5.54-.76m0 0-5.53-.77m0 0-5.53-.77m0 0-5.53-.77m0 0-5.54-.76m0 0-5.53-.77m0 0-5.53-.78m0 0-5.53-.77m0 0-5.54-.77m0 0-5.53-.79m0 0-5.53-.78m0 0-5.53-.8m0 0-5.52-.79m0 0-5.53-.8m0 0-3.9-.55M540 913.84l-4.72-3m0 0-4.72-2.98m0 0-4.71-3m0 0-4.72-2.98m0 0-4.72-3m0 0-4.72-2.99m0 0-4.71-2.99m0 0-4.72-2.99m0 0-4.72-2.99m0 0-4.72-3m0 0-4.71-2.98m0 0-4.72-3m0 0-4.72-2.99m0 0-4.71-3m0 0-4.72-2.98m0 0-4.71-3m0 0-4.72-3m0 0-4.72-2.99m0 0-4.71-2.99m0 0-4.72-3m0 0-4.71-2.99m0 0-4.71-3m0 0-4.71-3m0 0-4.71-3m0 0-4.71-3m0 0-4.7-3.02m0 0-4.72-3m0 0-4.7-3.01m0 0-4.7-3.01m0 0-2.35-1.5M562 939.71l-3.66-4.22m0 0-3.51-4.09M540 913.84l5.5 1.02m0 0 5.48 1.01m0 0 5.5 1.01m0 0 5.5 1.01m0 0 5.49 1m0 0 5.5 1m0 0 5.49 1m0 0 5.5.98m0 0 5.5.98m0 0 5.5.98m0 0 5.5.96m0 0 5.5.98m0 0 5.5.96m0 0 5.5.95m0 0 1.18.2m70.6-76.1-5.14 2.17m0 0-5.15 2.16m0 0-5.15 2.17m0 0-5.15 2.16m0 0-5.15 2.17m0 0-5.15 2.16m0 0-5.15 2.16m0 0-5.15 2.16m0 0-5.15 2.16m0 0-5.16 2.16m0 0-5.15 2.15m0 0-5.16 2.15m0 0-5.15 2.15m0 0-5.15 2.16m0 0-5.16 2.15m0 0-5.16 2.15m0 0-5.15 2.14m0 0-5.16 2.15m0 0-5.16 2.15m0 0-5.15 2.14m0 0-5.16 2.15m0 0-5.16 2.14m0 0-5.16 2.14m0 0-5.16 2.14m0 0-5.16 2.14m0 0-5.16 2.14m0 0-5.16 2.13m0 0-5.16 2.14m0 0-4.41 1.82m0 0-19.53-21.8m19.53 21.8-37.99-119.08M540 913.84l-7.68-121.85M540 913.84l.31-5.58m0 0 .31-5.58m0 0 .31-5.57m0 0 .31-5.58m0 0 .3-5.58m0 0 .32-5.58m0 0 .3-5.57m0 0 .3-5.58m0 0 .31-5.58m0 0 .3-5.57m0 0 .31-5.58m0 0 .3-5.58m0 0 .3-5.58m0 0 .3-5.57m0 0 .3-5.58m0 0 .3-5.58m0 0 .3-5.58m0 0 .28-5.58m0 0 .28-5.58m0 0 .33-5.57m0 0 .3-5.58m0 0 .3-5.58m0 0 .3-5.57m0 0 .3-5.58m0 0 .3-5.58m0 0 .22-4M540 913.84l22.96-120.93M540 913.84l1.49-5.39m0 0 1.48-5.38m0 0 1.49-5.39m0 0 1.48-5.38m0 0 1.49-5.38m0 0 1.48-5.39m0 0 1.48-5.38m0 0 1.49-5.4m0 0 1.48-5.38m0 0 1.48-5.38m0 0 1.47-5.4m0 0 1.48-5.38m0 0 1.47-5.38m0 0 1.48-5.4m0 0 1.47-5.38m0 0 1.47-5.39m0 0 1.47-5.39m0 0 1.47-5.39m0 0 1.46-5.39m0 0 1.48-5.38m0 0 1.48-5.4m0 0 1.47-5.38m0 0 1.47-5.39m0 0 1.47-5.39m0 0 1.48-5.39m0 0 1.47-5.38m0 0 .15-.56M540 913.84l52.6-116.34M540 913.84l2.52-4.98m0 0 2.53-4.99m0 0 2.52-4.98m0 0 2.53-4.98m0 0 2.52-4.99m0 0 2.52-4.98m0 0 2.52-4.99m0 0 2.52-4.98m0 0 2.52-4.99m0 0 2.51-4.98m0 0 2.52-5m0 0 2.52-4.98m0 0 2.5-4.99m0 0 2.52-4.99m0 0 2.51-4.99m0 0 2.51-4.99m0 0 2.51-4.99m0 0 2.5-4.99m0 0 2.5-5m0 0 2.5-4.99m0 0 2.53-4.98m0 0 2.51-5m0 0 2.5-4.98m0 0 2.51-5m0 0 2.51-4.99m0 0 2.5-4.99m0 0 2.26-4.5m-214.74 63.18 5.03 2.44m0 0 5.02 2.44m0 0 5.02 2.45m0 0 5.03 2.44m0 0 5.02 2.44m0 0 5.03 2.44m0 0 5.02 2.44m0 0 5.03 2.43m0 0 5.03 2.43m0 0 5.03 2.43m0 0 5.03 2.42m0 0 5.04 2.42m0 0 5.03 2.43m0 0 5.03 2.43m0 0 5.03 2.42m0 0 5.03 2.43m0 0 5.04 2.42m0 0 5.03 2.43m0 0 5.03 2.42m0 0 5.03 2.42m0 0 5.04 2.42m0 0 5.03 2.43m0 0 5.03 2.42m0 0 5.04 2.42m0 0 5.03 2.42m0 0 5.03 2.42m0 0 5.04 2.43m0 0 5.03 2.42m0 0 5.04 2.42m0 0 1.23.59m140.59 135.9-2.96-1.71m-36.54 24.5-.27-3.8m39.5-22.8.26 3.8m-39.76 19 5.13-2.2m0 0 5.06-2.37m0 0 4.99-2.5m0 0 4.9-2.68m0 0 4.82-2.83m0 0 4.7-3m0 0 4.6-3.18m0 0 4.46-3.37m0 0 .84-.67m-39.23 26.61-5.19 2.07m0 0-5.24 1.94m0 0-5.29 1.8m0 0-5.33 1.67m0 0-5.36 1.55m0 0-5.4 1.42m0 0-5.43 1.31m0 0-5.46 1.19m0 0-5.48 1.07m0 0-5.5.96m0 0-5.53.85m0 0-5.53.75m0 0-5.55.63m0 0-5.56.53m0 0-5.57.42m0 0-5.58.31m0 0-5.58.21m0 0-5.59.11m0 0h-5.58m0 0-5.59-.1m0 0-5.58-.2m0 0-5.58-.32m0 0-5.57-.41m0 0-5.56-.52m0 0-5.55-.63m0 0-5.53-.74m0 0-5.53-.84m0 0-5.5-.96m0 0-5.48-1.07m0 0-5.46-1.18m0 0-5.43-1.3m0 0-5.4-1.42m0 0-5.37-1.54m0 0-5.33-1.67m0 0-5.3-1.8m0 0-5.24-1.93m0 0-5.19-2.06m0 0-5.13-2.2m0 0-5.06-2.36m0 0-5-2.5m0 0-4.9-2.66m0 0-4.83-2.83m0 0-4.7-3m0 0-4.6-3.17m0 0-4.47-3.35m0 0-4.31-3.55m0 0-4.15-3.75m0 0-3.94-3.95m0 0-3.73-4.16m0 0-3.47-4.38m0 0-3.18-4.59m0 0-2.85-4.8m0 0-2.48-5m0 0-2.07-5.2m0 0-1.61-5.34m0 0-1.12-5.47m0 0-.48-3.88m24.08-136.62.9 5.5m0 0 1.48 5.39m0 0 2.02 5.2m0 0 2.5 5m0 0 2.93 4.75m0 0 3.3 4.51m0 0 3.6 4.26m0 0 3.89 4.02m0 0 4.11 3.77m0 0 4.32 3.55m0 0 4.49 3.32m0 0 4.64 3.11m0 0 4.76 2.91m0 0 4.88 2.72m0 0 4.98 2.53m0 0 5.07 2.35m0 0 5.14 2.19m0 0 5.2 2.02m0 0 5.27 1.87m0 0 5.32 1.71m0 0 5.36 1.57m0 0 5.4 1.42m0 0 5.43 1.3m0 0 5.47 1.14m0 0 5.5 1.02m0 0 5.5.9m0 0 5.54.75m0 0 5.55.64m0 0 5.56.51m0 0 5.57.4m0 0 5.58.26m0 0 5.59.15m0 0 5.58.03m0 0 5.59-.1m0 0 5.58-.21m0 0 5.57-.34m0 0 3.62-.29m.08 0h-.08m.08 0 5.56-.55m0 0 5.55-.66m0 0 5.53-.8m0 0 5.5-.91m0 0 5.5-1.05m0 0 5.45-1.18m0 0 5.43-1.32m0 0 5.4-1.46m0 0 5.34-1.6m0 0 5.3-1.75m0 0 5.26-1.9m0 0 5.2-2.06m0 0 5.12-2.23m0 0 5.04-2.4m0 0 4.96-2.56m0 0 4.86-2.76m0 0 4.74-2.96m0 0 4.6-3.16m0 0 4.45-3.37m0 0 4.28-3.6m0 0 4.06-3.83m0 0 3.82-4.07m0 0 3.54-4.32m0 0 3.22-4.57m0 0 2.83-4.8m0 0 2.4-5.05m0 0 1.9-5.25m0 0 1.35-5.42m0 0 .64-4.25M554.82 931.4l-3.63-4.24m0 0-3.61-4.26m0 0-3.6-4.28m0 0-3.57-4.3m0 0-.41-.48m172.93 82.66-.76 5.53m0 0-1.27 5.44m0 0-1.76 5.3m0 0-2.2 5.13m0 0-2.59 4.95m0 0-2.95 4.74m0 0-3.28 4.52m0 0-3.55 4.32m0 0-3.79 4.1m0 0-4 3.88m0 0-4.2 3.7m0 0-2 1.62m-71.88 126.3-.02-.01m-48.39 43.8-2.42.5m52.8 27.02-4.6 3.16m0 0-4.82 2.84m0 0-4.97 2.55m0 0-5.1 2.26m0 0-5.23 1.99m0 0-5.3 1.73m0 0-5.39 1.5m0 0-5.44 1.26m0 0-5.49 1.03m0 0-5.52.81m0 0-5.56.6m0 0-5.57.39m0 0-5.58.18m0 0-5.59-.02m0 0-5.58-.24m0 0-5.56-.44m0 0-5.55-.65m0 0-5.52-.86m0 0-5.48-1.1m0 0-5.43-1.3m0 0-5.36-1.56m0 0-5.3-1.8m0 0-5.18-2.05m0 0-5.08-2.33m0 0-4.94-2.61m0 0-4.76-2.92m0 0-3.86-2.72m69.45 14.7-5.58-.15m0 0-5.57-.35m0 0-5.56-.54m0 0-5.54-.74m0 0-5.5-.95m0 0-5.47-1.16m0 0-5.41-1.38m0 0-5.35-1.6m0 0-5.27-1.86m0 0-5.18-2.1m0 0-5.06-2.36m0 0-4.9-2.66m0 0-4.74-2.96m0 0-4.5-3.3m0 0-4.23-3.65m0 0-3.86-4.04m0 0-3.4-4.43m0 0-2.8-4.82m0 0-2.07-5.19m0 0-1.2-5.44m0 0-.27-4.05m66.9-46.73 2.94-.84m-30.8 72.44.27-.26m-14.98 39.6-1.57-5.35m0 0-.6-5.6m.97 8.38.15-.58"/><path id="silhouetteCurves" stroke="#000" stroke-linecap="round" stroke-linejoin="round" stroke-width=".1" d="m442.5 1174.77.5 1.75m-67.2-123.69 4.4 13.47m322.35-8.94-.02.17m-61.2 105.54-3.87 11.84m-194.45 1.6.06-.22m1.8 8.64.54-.32m212.72-49.55-2.22 2.34m15.37-18.27.5-.86m32.99-67.95-1.64 5.34m0 0-.58 1.7m-59.88 102.58v.02m0 .02v-.02m64.44-119-.07-.13m-26.27 63.1 3.2-4.29m0 0 2.58-4.95m0 0 2.52-4.98m0 0 .71-1.46m-319.57-58.78 1.24 5.44m0 0 1.24 5.45m0 0 1.3 5.43m0 0 1.4 5.4m60.2 104.76 3.08 7.12m6.23 22.2-.03-.34m-19.1-45.18 4.8 7.05m210.76 16.27 1.34-3.1m64.44-119.02.04-.06m-2.38 9.43 1.29-5.43m0 0 .98-4.07m-71.87 144.16 1.24-5.44m0 0 1.05-4.63M445.1 1177l.25 5.57m0 0 .07 2.04m-48.8-84.16 1.61 2.75m282.56.65-1.47 2.91m-234.33 70.35.1-.12m-6.4-13.93 1.72 5.31m0 0 1.74 5.31m0 0 .36 1.07M408.6 1119l-3.13-4.62m0 0-1.8-2.68m303.48-70.81 1.28-5.44m0 0 1.36-5.98m0 0 .75-5.54m0 0 .74-5.54m0 0 .63-5.54m0 0 .28-4.09m-267.29 176.5.71 5.54m0 0 .77 5.26m164.84 106.12v-.08m0 .45v-.37m-23.56 44.94-1.98 1.52m25.54-79.2-.7 5.54m0 0-.66 2.34m-141.08 0 .5-5.56m0 0 .6-2.7m-1.1 24.47v.29m0 .04v.16m137.79 22.89-2.05 2.8m6.7-17.16-.74 5.52m0 0-1.9 5.25m0 0-1.99 3.54m-136.63-63.99-1.07 5.48m0 0-.1 2.45m0 49.37.52-5.56m0 0 .57-2.53m134.64 17.63-1.13 5.47m0 0-1.93 5.24m0 0-2.69 4.89m0 0-3.34 4.47m0 0-3.87 4.02m0 0-3.9 3.32m23.56-94.42-.64 5.54m0 0-.72 2.57m0 16.51 1.2 5.45m0 0 .16 2.8m0 .07v-.07m-141.26-32.7-1.06-5.84m.97 22.04-.97-5.5m0 0-.12-2.28m1.1 24.29-.98-5.5m0 0-.12-2.31m.81 39.37.12.5m141.5-15.57v-.23m-25.53 46.8-4.7 3m0 0-5 2.5m0 0-5.19 2.07m0 0-5.32 1.68m0 0-4.87 1.2m50.62-106.4v-.1m-1.37 8.22 1.21 5.44m0 0 .16 2.68m43.05-478.97 4.79 2.88m0 0 4.67 3.06m0 0 4.54 3.26m0 0 4.39 3.45m0 0 4.22 3.65m0 0 4.03 3.87m0 0 3.82 4.08m0 0 3.56 4.3m0 0 3.28 4.52m0 0 2.95 4.74m0 0 2.6 4.94m0 0 2.19 5.14m0 0 1.74 5.3m0 0 1.27 5.44m0 0 .75 5.53m0 0 .31 5.58m0 0 .27 5.58m0 0 .28 5.58m0 0 .29 5.58m0 0 .3 5.58m0 0 .33 5.57m0 0 .34 5.58m0 0 .35 5.57m0 0 .36 5.58m0 0 .38 5.57m0 0 .4 5.57m0 0 .4 5.57m0 0 .43 5.57m0 0 .43 5.57m0 0 .45 5.57m0 0 .47 5.56m0 0 .48 5.57m0 0 .5 5.56m0 0 .5 5.57m0 0 .52 5.56m0 0 .54 5.56m0 0 .55 5.56m0 0 .57 5.55m0 0 .32 3.12m-345.68 0 .57-5.56m0 0 .56-5.55m0 0 .54-5.56m0 0 .53-5.56m0 0 .52-5.57m0 0 .5-5.56m0 0 .5-5.56m0 0 .46-5.57m0 0 .46-5.57m0 0 .45-5.56m0 0 .43-5.57m0 0 .42-5.57m0 0 .4-5.58m0 0 .38-5.57m0 0 .38-5.57m0 0 .36-5.58m0 0 .34-5.57m0 0 .33-5.58m0 0 .32-5.57m0 0 .3-5.58m0 0 .29-5.58m0 0 .27-5.58m0 0 .26-5.58m0 0 .46-5.56m0 0 .98-5.5m0 0 1.48-5.38m0 0 1.95-5.24m0 0 2.37-5.05m0 0 2.76-4.86m0 0 3.1-4.64m0 0 3.41-4.43m0 0 3.68-4.2m0 0 3.91-3.99m0 0 4.12-3.77m0 0 4.3-3.56m0 0 4.46-3.37m0 0 4.6-3.17m0 0 4.72-2.98m0 0 4.83-2.8m0 0 4.93-2.63m0 0 5-2.47m0 0 5.1-2.3m0 0 5.15-2.16m0 0 5.21-2m0 0 5.27-1.86m0 0 5.32-1.72m0 0 5.35-1.59m0 0 5.4-1.45m0 0 5.42-1.33m0 0 5.46-1.2m0 0 5.48-1.07m0 0 5.5-.96m0 0 5.52-.83m0 0 5.54-.72m0 0 5.56-.6m0 0 5.56-.5m0 0 5.57-.36m0 0 5.58-.27m0 0 5.59-.15m0 0 5.58-.03m0 0 5.59.07m0 0 5.58.19m0 0 5.58.3m0 0 5.57.41m0 0 5.56.53m0 0 5.55.64m0 0 5.53.76m0 0 5.52.88m0 0 5.5 1m0 0 5.47 1.1m0 0 5.44 1.25m0 0 5.42 1.37m0 0 5.38 1.5m0 0 5.34 1.63m0 0 5.3 1.76m0 0 5.25 1.91m0 0 5.2 2.06m0 0 5.13 2.2m0 0 5.06 2.36m0 0 4.98 2.53m0 0 5.37 2.96M633.1 1208l-.39 5.57m0 0-1.14 5.46m0 0-1.84 5.27m0 0-2.49 5m0 0-3.04 4.68m0 0-3.52 4.33m0 0-3.91 3.99m0 0-4.25 3.63m0 0-1.83 1.4M446.92 1208l.17-3.27m21.7 105.64.34 4.3m141.56-67.34.54 5.19m0 16.88v-.31m-90.62 90.7-5.47-1.11m0 0-5.4-1.43m0 0-5.3-1.76m0 0-5.18-2.1m0 0-5-2.49m0 0-1.42-.8m27.77 9.7 5.1 2.25m0 0 5.4 1.43m0 0 5.53.72m0 0 5.58.07m0 0 5.55-.58m0 0 5.44-1.28m0 0 5.18-2.07m0 0 2.22-1.26m-91.82-48.92v.21m142.44-41.29v-.16m32.9-112.35-1.45 3.36m38.1-56.01.01-.07M367.08 996.5l-.24-5.58m0 0 .32-5.57M633.09 1208v-.04m-262.88-178.5-.75-5.54m0 0-.74-5.53m0 0-.63-5.55m0 0-.47-5.57m0 0-.32-5.58m0 0-.25-5.58m0 0-.14-3.96m79.47 203.9.53 5.41m0 0 .17 3.27m-71.28-151.91-.42-1.64m7.99 22.4-2.23-5.12m0 0 .33.78m0 0 2.22 5.13m0 0 2.22 5.12m0 0 .43.98m-.01 0 2.22 5.13m0 0-.18-.44m0 0-2.03-4.7m56.73 95.82 1.91.83m-55.41-89.17 2.69 4.9m0 0 2.7 4.88m0 0 1.66 2.73m1.6 2.75 2.9 4.77m0 0 2.64 3.85m31.89 44.22-5.07-9.25m-4.8-7.05-3.57-4.3m0 0-3.57-4.3m0 0-3.56-4.3m0 0-3.56-4.3m0 0-2.91-3.55m240.82 27.8 3.14-4.62m0 0 3.34-4.78m35.46-51.61 2.22-5.13m0 0 2.22-5.13m0 0 2.21-5.12m0 0 1.34-3.1m0 0-2.22 5.13m0 0-2.22 5.12m0 0-2.22 5.13m0 0-2.05 4.76m-41.23 59.35-5.07 9.25m-1.68 3.93 1.74-4.04m55.39-89.65 1.73-5.3m0 0 1-3.46m-67.36 127.45-1.74 12.91m78.76-189.13.44-5.57m0 0 .25-5.58m0 0 .25-5.58m0 0 .03-.66m-80.2 219.45.25-5.58m0 0 .18-5.59m0 0 .06-1.9m-248.68-120.87-.02-.09m286.53 42.34-3.55 4.31m0 0-3.55 4.31m0 0-3.56 4.3m0 0-2.5 3m32.53-47.6-.87.8m-18 30.01 3.2-4.54m0 0 3.04-4.69m0 0 1.3-2.26m-209.35 195.66-1.07 5.47m0 0-.12 2.27m24.05 39.94-4.7-3m0 0-4.4-3.44m0 0-4-3.89m0 0-3.5-4.36m0 0-2.86-4.79m0 0-2.12-5.16m0 0-1.32-5.42m0 0-.42-3.37m-.39-2 .69 3.14m141.4-31.9-.68 5.54m0 0-.81 2.78m0-.8 1.3 5.42m0 0 .2 2.97m0-16.19-.75 5.52m0 0-.75 2.27m-140.94-32.63.57 5.55m0 0 .61 2.4m-1.18 8.67.56-5.55m0 0 .62-2.48m0 15.87-1.07-5.47m0 0-.1-2.37m0 16.1.54-5.55m0 0 .63-2.71m.01 17.18-1.03-5.49m0 0-.16-2.93m.81 23.11-.46-2.39m243.71-329.39.31 5.58m0 0-.22 5.57m-244 250.55-4.34-3.52m0 0-4.03-3.87m0 0-3.65-4.22m0 0-3.21-4.57m0 0-2.68-4.9m0 0-2.06-5.2m0 0-1.37-5.4m0 0-.64-5.55m0 0-.04-1.81"/></svg>