<?xml version="1.0" encoding="utf-8"?>
<!-- Generator: Adobe Illustrator 27.9.0, SVG Export Plug-In . SVG Version: 6.00 Build 0)  -->
<svg version="1.1" id="Calque_1" xmlns="http://www.w3.org/2000/svg" xmlns:xlink="http://www.w3.org/1999/xlink" x="0px" y="0px"
	 viewBox="0 0 1786 458" style="enable-background:new 0 0 1786 458;" xml:space="preserve">
<style type="text/css">
	.st0{opacity:0.8;}
	.st1{fill:url(#SVGID_1_);}
	.st2{fill:#FFFFFF;}
</style>
<g class="st0">
	<g>
		
			<linearGradient id="SVGID_1_" gradientUnits="userSpaceOnUse" x1="893.05" y1="939.7" x2="893.05" y2="482.4" gradientTransform="matrix(1 0 0 1 0 -482)">
			<stop  offset="0" style="stop-color:#5A5A5A"/>
			<stop  offset="1" style="stop-color:#3C3C3C"/>
		</linearGradient>
		<path class="st1" d="M150.5,0.4c-82.8,0-150,67.2-150,150v157.3c0,82.8,67.2,150,150,150h1485.1c82.8,0,150-67.2,150-150V150.4
			c0-82.8-67.2-150-150-150C1635.6,0.4,150.5,0.4,150.5,0.4z"/>
	</g>
</g>
<g>
	<g>
		<path class="st2" d="M1386,339.4V247c0-26.9,11.8-45.4,35.3-45.4c16.8,0,30.2,11.8,30.2,38.6v99.1h40.3v-95.8
			c0-26.9,11.8-42,35.3-42c16.8,0,30.2,11.8,30.2,38.6v99.1h40.3V235.3c0-37-16.8-67.2-63.8-67.2c-30.2,0-45.4,16.8-52.1,26.9
			c-6.7-10.1-20.2-26.9-50.4-26.9c-28.6,0-40.3,13.4-47,23.5v-20.2h-38.6v168L1386,339.4L1386,339.4z M1233.9,309.2
			c-28.6,0-45.4-20.2-45.4-53.8c0-30.2,16.8-53.8,45.4-53.8s45.4,23.5,45.4,53.8C1279.2,289,1262.4,309.2,1233.9,309.2
			 M1233.9,342.8c48.7,0,85.7-33.6,85.7-87.4c0-50.4-37-87.4-85.7-87.4s-85.7,37-85.7,87.4C1148.2,309.2,1185.1,342.8,1233.9,342.8
			 M1058.2,342.8c47,0,72.2-35.3,75.6-63.8h-40.3c-3.4,11.8-11.8,30.2-35.3,30.2s-40.3-20.2-40.3-53.8s16.8-53.8,40.3-53.8
			s31.9,18.5,35.3,30.2h40.3c-3.4-28.6-28.6-63.8-75.6-63.8s-82.3,37-82.3,87.4C975.9,305.8,1007.8,342.8,1058.2,342.8 M927.9,344.5
			c15.1,0,26.9-11.8,26.9-26.9s-11.8-26.9-26.9-26.9S901,302.5,901,317.6S912.8,344.5,927.9,344.5 M753.9,240.3
			c4.4-27.2,20.2-40.3,42-40.3s40.3,15.1,40.3,40.3H753.9z M876.5,262.2c0-57.1-28.6-94.1-80.6-94.1c-48.7,0-82.3,37-82.3,87.4
			c0,53.8,33.6,87.4,85.7,87.4c37,0,60.5-16.8,73.9-43.7L839.6,286c-6.7,13.4-20.2,24.9-40.3,24.9c-22.5,0-41-13.4-45.4-42h122.6
			L876.5,262.2L876.5,262.2z M603.4,309.2c-28.6,0-43.7-20.2-43.7-53.8c0-26.9,15.1-53.4,43.7-53.4c30.2,0,43.7,26.5,43.7,53.4
			C647.1,282.3,633.7,309.2,603.4,309.2 M596.7,342.8c28.2,0,46.4-13.4,52.1-23.5v20.2h38.6V111h-40.3v80.6
			c-5-10.1-22.2-23.5-50.4-23.5c-47,0-77.3,37-77.3,87.4C519.4,309.2,549.7,342.8,596.7,342.8 M417.7,309.2
			c-28.6,0-45.4-20.2-45.4-53.8c0-30.2,16.8-53.8,45.4-53.8s45.4,23.5,45.4,53.8C463,289,446.2,309.2,417.7,309.2 M417.7,342.8
			c48.7,0,85.7-33.6,85.7-87.4c0-50.4-37-87.4-85.7-87.4S332,205,332,255.4C332,309.2,369,342.8,417.7,342.8 M305.8,171.4h-40.3v168
			h40.3V171.4z M285.7,153c13.4,0,23.5-10.1,23.5-23.5S299.1,106,285.7,106s-23.5,10.1-23.5,23.5S272.2,153,285.7,153 M229.3,171.4
			H189v168h40.3V171.4z M209.1,153c13.4,0,23.5-10.1,23.5-23.5S222.5,106,209.1,106s-23.5,10.1-23.5,23.5S195.7,153,209.1,153"/>
	</g>
</g>
</svg>
